%FSLAX45Y45*%
G04 Gerber Fmt 4.5, Leading zero omitted, Abs format (unit mm)*
G04 Created by KiCad (PCBNEW (5.1.10)-1) date 2021-11-27 12:57:09*
%MOMM*%
%LPD*%
G01*
G04 APERTURE LIST*
%TA.AperFunction,Profile*%
%ADD10C,0.100000*%
%TD*%
%ADD11C,0.200000*%
%ADD12C,0.300000*%
G04 APERTURE END LIST*
D10*
X14732000Y-4699000D02*
X14732000Y-13589000D01*
X1778000Y-4699000D02*
X14732000Y-4699000D01*
X1778000Y-13589000D02*
X1778000Y-4699000D01*
X14732000Y-13589000D02*
X1778000Y-13589000D01*
D11*
D12*
X2059428Y-14059714D02*
X2059428Y-13759714D01*
X2130857Y-13759714D01*
X2173714Y-13774000D01*
X2202286Y-13802571D01*
X2216571Y-13831143D01*
X2230857Y-13888286D01*
X2230857Y-13931143D01*
X2216571Y-13988286D01*
X2202286Y-14016857D01*
X2173714Y-14045429D01*
X2130857Y-14059714D01*
X2059428Y-14059714D01*
X2359428Y-14059714D02*
X2359428Y-13859714D01*
X2359428Y-13916857D02*
X2373714Y-13888286D01*
X2388000Y-13874000D01*
X2416571Y-13859714D01*
X2445143Y-13859714D01*
X2545143Y-14059714D02*
X2545143Y-13859714D01*
X2545143Y-13759714D02*
X2530857Y-13774000D01*
X2545143Y-13788286D01*
X2559428Y-13774000D01*
X2545143Y-13759714D01*
X2545143Y-13788286D01*
X2730857Y-14059714D02*
X2702286Y-14045429D01*
X2688000Y-14016857D01*
X2688000Y-13759714D01*
X2888000Y-14059714D02*
X2859428Y-14045429D01*
X2845143Y-14016857D01*
X2845143Y-13759714D01*
X3230857Y-14059714D02*
X3230857Y-13759714D01*
X3330857Y-13974000D01*
X3430857Y-13759714D01*
X3430857Y-14059714D01*
X3702286Y-14059714D02*
X3702286Y-13902571D01*
X3688000Y-13874000D01*
X3659428Y-13859714D01*
X3602286Y-13859714D01*
X3573714Y-13874000D01*
X3702286Y-14045429D02*
X3673714Y-14059714D01*
X3602286Y-14059714D01*
X3573714Y-14045429D01*
X3559428Y-14016857D01*
X3559428Y-13988286D01*
X3573714Y-13959714D01*
X3602286Y-13945429D01*
X3673714Y-13945429D01*
X3702286Y-13931143D01*
X3845143Y-13859714D02*
X3845143Y-14159714D01*
X3845143Y-13874000D02*
X3873714Y-13859714D01*
X3930857Y-13859714D01*
X3959428Y-13874000D01*
X3973714Y-13888286D01*
X3988000Y-13916857D01*
X3988000Y-14002571D01*
X3973714Y-14031143D01*
X3959428Y-14045429D01*
X3930857Y-14059714D01*
X3873714Y-14059714D01*
X3845143Y-14045429D01*
X4116571Y-14031143D02*
X4130857Y-14045429D01*
X4116571Y-14059714D01*
X4102286Y-14045429D01*
X4116571Y-14031143D01*
X4116571Y-14059714D01*
X4116571Y-13874000D02*
X4130857Y-13888286D01*
X4116571Y-13902571D01*
X4102286Y-13888286D01*
X4116571Y-13874000D01*
X4116571Y-13902571D01*
M02*
