%TF.GenerationSoftware,KiCad,Pcbnew,(5.1.10)-1*%
%TF.CreationDate,2021-11-27T12:55:31-07:00*%
%TF.ProjectId,SandboxBreakout,53616e64-626f-4784-9272-65616b6f7574,rev?*%
%TF.SameCoordinates,Original*%
%TF.FileFunction,Paste,Top*%
%TF.FilePolarity,Positive*%
%FSLAX46Y46*%
G04 Gerber Fmt 4.6, Leading zero omitted, Abs format (unit mm)*
G04 Created by KiCad (PCBNEW (5.1.10)-1) date 2021-11-27 12:55:31*
%MOMM*%
%LPD*%
G01*
G04 APERTURE LIST*
G04 APERTURE END LIST*
G36*
G01*
X65455000Y-126750000D02*
X65455000Y-124450000D01*
G75*
G02*
X65705000Y-124200000I250000J0D01*
G01*
X66205000Y-124200000D01*
G75*
G02*
X66455000Y-124450000I0J-250000D01*
G01*
X66455000Y-126750000D01*
G75*
G02*
X66205000Y-127000000I-250000J0D01*
G01*
X65705000Y-127000000D01*
G75*
G02*
X65455000Y-126750000I0J250000D01*
G01*
G37*
G36*
G01*
X58005000Y-126750000D02*
X58005000Y-124450000D01*
G75*
G02*
X58255000Y-124200000I250000J0D01*
G01*
X58755000Y-124200000D01*
G75*
G02*
X59005000Y-124450000I0J-250000D01*
G01*
X59005000Y-126750000D01*
G75*
G02*
X58755000Y-127000000I-250000J0D01*
G01*
X58255000Y-127000000D01*
G75*
G02*
X58005000Y-126750000I0J250000D01*
G01*
G37*
G36*
G01*
X63805000Y-129650000D02*
X63805000Y-128250000D01*
G75*
G02*
X63955000Y-128100000I150000J0D01*
G01*
X64255000Y-128100000D01*
G75*
G02*
X64405000Y-128250000I0J-150000D01*
G01*
X64405000Y-129650000D01*
G75*
G02*
X64255000Y-129800000I-150000J0D01*
G01*
X63955000Y-129800000D01*
G75*
G02*
X63805000Y-129650000I0J150000D01*
G01*
G37*
G36*
G01*
X62555000Y-129650000D02*
X62555000Y-128250000D01*
G75*
G02*
X62705000Y-128100000I150000J0D01*
G01*
X63005000Y-128100000D01*
G75*
G02*
X63155000Y-128250000I0J-150000D01*
G01*
X63155000Y-129650000D01*
G75*
G02*
X63005000Y-129800000I-150000J0D01*
G01*
X62705000Y-129800000D01*
G75*
G02*
X62555000Y-129650000I0J150000D01*
G01*
G37*
G36*
G01*
X61305000Y-129650000D02*
X61305000Y-128250000D01*
G75*
G02*
X61455000Y-128100000I150000J0D01*
G01*
X61755000Y-128100000D01*
G75*
G02*
X61905000Y-128250000I0J-150000D01*
G01*
X61905000Y-129650000D01*
G75*
G02*
X61755000Y-129800000I-150000J0D01*
G01*
X61455000Y-129800000D01*
G75*
G02*
X61305000Y-129650000I0J150000D01*
G01*
G37*
G36*
G01*
X60055000Y-129650000D02*
X60055000Y-128250000D01*
G75*
G02*
X60205000Y-128100000I150000J0D01*
G01*
X60505000Y-128100000D01*
G75*
G02*
X60655000Y-128250000I0J-150000D01*
G01*
X60655000Y-129650000D01*
G75*
G02*
X60505000Y-129800000I-150000J0D01*
G01*
X60205000Y-129800000D01*
G75*
G02*
X60055000Y-129650000I0J150000D01*
G01*
G37*
G36*
G01*
X65370000Y-117990000D02*
X65370000Y-115690000D01*
G75*
G02*
X65620000Y-115440000I250000J0D01*
G01*
X66120000Y-115440000D01*
G75*
G02*
X66370000Y-115690000I0J-250000D01*
G01*
X66370000Y-117990000D01*
G75*
G02*
X66120000Y-118240000I-250000J0D01*
G01*
X65620000Y-118240000D01*
G75*
G02*
X65370000Y-117990000I0J250000D01*
G01*
G37*
G36*
G01*
X57920000Y-117990000D02*
X57920000Y-115690000D01*
G75*
G02*
X58170000Y-115440000I250000J0D01*
G01*
X58670000Y-115440000D01*
G75*
G02*
X58920000Y-115690000I0J-250000D01*
G01*
X58920000Y-117990000D01*
G75*
G02*
X58670000Y-118240000I-250000J0D01*
G01*
X58170000Y-118240000D01*
G75*
G02*
X57920000Y-117990000I0J250000D01*
G01*
G37*
G36*
G01*
X63720000Y-120890000D02*
X63720000Y-119490000D01*
G75*
G02*
X63870000Y-119340000I150000J0D01*
G01*
X64170000Y-119340000D01*
G75*
G02*
X64320000Y-119490000I0J-150000D01*
G01*
X64320000Y-120890000D01*
G75*
G02*
X64170000Y-121040000I-150000J0D01*
G01*
X63870000Y-121040000D01*
G75*
G02*
X63720000Y-120890000I0J150000D01*
G01*
G37*
G36*
G01*
X62470000Y-120890000D02*
X62470000Y-119490000D01*
G75*
G02*
X62620000Y-119340000I150000J0D01*
G01*
X62920000Y-119340000D01*
G75*
G02*
X63070000Y-119490000I0J-150000D01*
G01*
X63070000Y-120890000D01*
G75*
G02*
X62920000Y-121040000I-150000J0D01*
G01*
X62620000Y-121040000D01*
G75*
G02*
X62470000Y-120890000I0J150000D01*
G01*
G37*
G36*
G01*
X61220000Y-120890000D02*
X61220000Y-119490000D01*
G75*
G02*
X61370000Y-119340000I150000J0D01*
G01*
X61670000Y-119340000D01*
G75*
G02*
X61820000Y-119490000I0J-150000D01*
G01*
X61820000Y-120890000D01*
G75*
G02*
X61670000Y-121040000I-150000J0D01*
G01*
X61370000Y-121040000D01*
G75*
G02*
X61220000Y-120890000I0J150000D01*
G01*
G37*
G36*
G01*
X59970000Y-120890000D02*
X59970000Y-119490000D01*
G75*
G02*
X60120000Y-119340000I150000J0D01*
G01*
X60420000Y-119340000D01*
G75*
G02*
X60570000Y-119490000I0J-150000D01*
G01*
X60570000Y-120890000D01*
G75*
G02*
X60420000Y-121040000I-150000J0D01*
G01*
X60120000Y-121040000D01*
G75*
G02*
X59970000Y-120890000I0J150000D01*
G01*
G37*
G36*
G01*
X87025000Y-102620000D02*
X87025000Y-100320000D01*
G75*
G02*
X87275000Y-100070000I250000J0D01*
G01*
X87775000Y-100070000D01*
G75*
G02*
X88025000Y-100320000I0J-250000D01*
G01*
X88025000Y-102620000D01*
G75*
G02*
X87775000Y-102870000I-250000J0D01*
G01*
X87275000Y-102870000D01*
G75*
G02*
X87025000Y-102620000I0J250000D01*
G01*
G37*
G36*
G01*
X77075000Y-102620000D02*
X77075000Y-100320000D01*
G75*
G02*
X77325000Y-100070000I250000J0D01*
G01*
X77825000Y-100070000D01*
G75*
G02*
X78075000Y-100320000I0J-250000D01*
G01*
X78075000Y-102620000D01*
G75*
G02*
X77825000Y-102870000I-250000J0D01*
G01*
X77325000Y-102870000D01*
G75*
G02*
X77075000Y-102620000I0J250000D01*
G01*
G37*
G36*
G01*
X85375000Y-105520000D02*
X85375000Y-104120000D01*
G75*
G02*
X85525000Y-103970000I150000J0D01*
G01*
X85825000Y-103970000D01*
G75*
G02*
X85975000Y-104120000I0J-150000D01*
G01*
X85975000Y-105520000D01*
G75*
G02*
X85825000Y-105670000I-150000J0D01*
G01*
X85525000Y-105670000D01*
G75*
G02*
X85375000Y-105520000I0J150000D01*
G01*
G37*
G36*
G01*
X84125000Y-105520000D02*
X84125000Y-104120000D01*
G75*
G02*
X84275000Y-103970000I150000J0D01*
G01*
X84575000Y-103970000D01*
G75*
G02*
X84725000Y-104120000I0J-150000D01*
G01*
X84725000Y-105520000D01*
G75*
G02*
X84575000Y-105670000I-150000J0D01*
G01*
X84275000Y-105670000D01*
G75*
G02*
X84125000Y-105520000I0J150000D01*
G01*
G37*
G36*
G01*
X82875000Y-105520000D02*
X82875000Y-104120000D01*
G75*
G02*
X83025000Y-103970000I150000J0D01*
G01*
X83325000Y-103970000D01*
G75*
G02*
X83475000Y-104120000I0J-150000D01*
G01*
X83475000Y-105520000D01*
G75*
G02*
X83325000Y-105670000I-150000J0D01*
G01*
X83025000Y-105670000D01*
G75*
G02*
X82875000Y-105520000I0J150000D01*
G01*
G37*
G36*
G01*
X81625000Y-105520000D02*
X81625000Y-104120000D01*
G75*
G02*
X81775000Y-103970000I150000J0D01*
G01*
X82075000Y-103970000D01*
G75*
G02*
X82225000Y-104120000I0J-150000D01*
G01*
X82225000Y-105520000D01*
G75*
G02*
X82075000Y-105670000I-150000J0D01*
G01*
X81775000Y-105670000D01*
G75*
G02*
X81625000Y-105520000I0J150000D01*
G01*
G37*
G36*
G01*
X80375000Y-105520000D02*
X80375000Y-104120000D01*
G75*
G02*
X80525000Y-103970000I150000J0D01*
G01*
X80825000Y-103970000D01*
G75*
G02*
X80975000Y-104120000I0J-150000D01*
G01*
X80975000Y-105520000D01*
G75*
G02*
X80825000Y-105670000I-150000J0D01*
G01*
X80525000Y-105670000D01*
G75*
G02*
X80375000Y-105520000I0J150000D01*
G01*
G37*
G36*
G01*
X79125000Y-105520000D02*
X79125000Y-104120000D01*
G75*
G02*
X79275000Y-103970000I150000J0D01*
G01*
X79575000Y-103970000D01*
G75*
G02*
X79725000Y-104120000I0J-150000D01*
G01*
X79725000Y-105520000D01*
G75*
G02*
X79575000Y-105670000I-150000J0D01*
G01*
X79275000Y-105670000D01*
G75*
G02*
X79125000Y-105520000I0J150000D01*
G01*
G37*
G36*
G01*
X87025000Y-93730000D02*
X87025000Y-91430000D01*
G75*
G02*
X87275000Y-91180000I250000J0D01*
G01*
X87775000Y-91180000D01*
G75*
G02*
X88025000Y-91430000I0J-250000D01*
G01*
X88025000Y-93730000D01*
G75*
G02*
X87775000Y-93980000I-250000J0D01*
G01*
X87275000Y-93980000D01*
G75*
G02*
X87025000Y-93730000I0J250000D01*
G01*
G37*
G36*
G01*
X77075000Y-93730000D02*
X77075000Y-91430000D01*
G75*
G02*
X77325000Y-91180000I250000J0D01*
G01*
X77825000Y-91180000D01*
G75*
G02*
X78075000Y-91430000I0J-250000D01*
G01*
X78075000Y-93730000D01*
G75*
G02*
X77825000Y-93980000I-250000J0D01*
G01*
X77325000Y-93980000D01*
G75*
G02*
X77075000Y-93730000I0J250000D01*
G01*
G37*
G36*
G01*
X85375000Y-96630000D02*
X85375000Y-95230000D01*
G75*
G02*
X85525000Y-95080000I150000J0D01*
G01*
X85825000Y-95080000D01*
G75*
G02*
X85975000Y-95230000I0J-150000D01*
G01*
X85975000Y-96630000D01*
G75*
G02*
X85825000Y-96780000I-150000J0D01*
G01*
X85525000Y-96780000D01*
G75*
G02*
X85375000Y-96630000I0J150000D01*
G01*
G37*
G36*
G01*
X84125000Y-96630000D02*
X84125000Y-95230000D01*
G75*
G02*
X84275000Y-95080000I150000J0D01*
G01*
X84575000Y-95080000D01*
G75*
G02*
X84725000Y-95230000I0J-150000D01*
G01*
X84725000Y-96630000D01*
G75*
G02*
X84575000Y-96780000I-150000J0D01*
G01*
X84275000Y-96780000D01*
G75*
G02*
X84125000Y-96630000I0J150000D01*
G01*
G37*
G36*
G01*
X82875000Y-96630000D02*
X82875000Y-95230000D01*
G75*
G02*
X83025000Y-95080000I150000J0D01*
G01*
X83325000Y-95080000D01*
G75*
G02*
X83475000Y-95230000I0J-150000D01*
G01*
X83475000Y-96630000D01*
G75*
G02*
X83325000Y-96780000I-150000J0D01*
G01*
X83025000Y-96780000D01*
G75*
G02*
X82875000Y-96630000I0J150000D01*
G01*
G37*
G36*
G01*
X81625000Y-96630000D02*
X81625000Y-95230000D01*
G75*
G02*
X81775000Y-95080000I150000J0D01*
G01*
X82075000Y-95080000D01*
G75*
G02*
X82225000Y-95230000I0J-150000D01*
G01*
X82225000Y-96630000D01*
G75*
G02*
X82075000Y-96780000I-150000J0D01*
G01*
X81775000Y-96780000D01*
G75*
G02*
X81625000Y-96630000I0J150000D01*
G01*
G37*
G36*
G01*
X80375000Y-96630000D02*
X80375000Y-95230000D01*
G75*
G02*
X80525000Y-95080000I150000J0D01*
G01*
X80825000Y-95080000D01*
G75*
G02*
X80975000Y-95230000I0J-150000D01*
G01*
X80975000Y-96630000D01*
G75*
G02*
X80825000Y-96780000I-150000J0D01*
G01*
X80525000Y-96780000D01*
G75*
G02*
X80375000Y-96630000I0J150000D01*
G01*
G37*
G36*
G01*
X79125000Y-96630000D02*
X79125000Y-95230000D01*
G75*
G02*
X79275000Y-95080000I150000J0D01*
G01*
X79575000Y-95080000D01*
G75*
G02*
X79725000Y-95230000I0J-150000D01*
G01*
X79725000Y-96630000D01*
G75*
G02*
X79575000Y-96780000I-150000J0D01*
G01*
X79275000Y-96780000D01*
G75*
G02*
X79125000Y-96630000I0J150000D01*
G01*
G37*
G36*
G01*
X66705000Y-102620000D02*
X66705000Y-100320000D01*
G75*
G02*
X66955000Y-100070000I250000J0D01*
G01*
X67455000Y-100070000D01*
G75*
G02*
X67705000Y-100320000I0J-250000D01*
G01*
X67705000Y-102620000D01*
G75*
G02*
X67455000Y-102870000I-250000J0D01*
G01*
X66955000Y-102870000D01*
G75*
G02*
X66705000Y-102620000I0J250000D01*
G01*
G37*
G36*
G01*
X56755000Y-102620000D02*
X56755000Y-100320000D01*
G75*
G02*
X57005000Y-100070000I250000J0D01*
G01*
X57505000Y-100070000D01*
G75*
G02*
X57755000Y-100320000I0J-250000D01*
G01*
X57755000Y-102620000D01*
G75*
G02*
X57505000Y-102870000I-250000J0D01*
G01*
X57005000Y-102870000D01*
G75*
G02*
X56755000Y-102620000I0J250000D01*
G01*
G37*
G36*
G01*
X65055000Y-105520000D02*
X65055000Y-104120000D01*
G75*
G02*
X65205000Y-103970000I150000J0D01*
G01*
X65505000Y-103970000D01*
G75*
G02*
X65655000Y-104120000I0J-150000D01*
G01*
X65655000Y-105520000D01*
G75*
G02*
X65505000Y-105670000I-150000J0D01*
G01*
X65205000Y-105670000D01*
G75*
G02*
X65055000Y-105520000I0J150000D01*
G01*
G37*
G36*
G01*
X63805000Y-105520000D02*
X63805000Y-104120000D01*
G75*
G02*
X63955000Y-103970000I150000J0D01*
G01*
X64255000Y-103970000D01*
G75*
G02*
X64405000Y-104120000I0J-150000D01*
G01*
X64405000Y-105520000D01*
G75*
G02*
X64255000Y-105670000I-150000J0D01*
G01*
X63955000Y-105670000D01*
G75*
G02*
X63805000Y-105520000I0J150000D01*
G01*
G37*
G36*
G01*
X62555000Y-105520000D02*
X62555000Y-104120000D01*
G75*
G02*
X62705000Y-103970000I150000J0D01*
G01*
X63005000Y-103970000D01*
G75*
G02*
X63155000Y-104120000I0J-150000D01*
G01*
X63155000Y-105520000D01*
G75*
G02*
X63005000Y-105670000I-150000J0D01*
G01*
X62705000Y-105670000D01*
G75*
G02*
X62555000Y-105520000I0J150000D01*
G01*
G37*
G36*
G01*
X61305000Y-105520000D02*
X61305000Y-104120000D01*
G75*
G02*
X61455000Y-103970000I150000J0D01*
G01*
X61755000Y-103970000D01*
G75*
G02*
X61905000Y-104120000I0J-150000D01*
G01*
X61905000Y-105520000D01*
G75*
G02*
X61755000Y-105670000I-150000J0D01*
G01*
X61455000Y-105670000D01*
G75*
G02*
X61305000Y-105520000I0J150000D01*
G01*
G37*
G36*
G01*
X60055000Y-105520000D02*
X60055000Y-104120000D01*
G75*
G02*
X60205000Y-103970000I150000J0D01*
G01*
X60505000Y-103970000D01*
G75*
G02*
X60655000Y-104120000I0J-150000D01*
G01*
X60655000Y-105520000D01*
G75*
G02*
X60505000Y-105670000I-150000J0D01*
G01*
X60205000Y-105670000D01*
G75*
G02*
X60055000Y-105520000I0J150000D01*
G01*
G37*
G36*
G01*
X58805000Y-105520000D02*
X58805000Y-104120000D01*
G75*
G02*
X58955000Y-103970000I150000J0D01*
G01*
X59255000Y-103970000D01*
G75*
G02*
X59405000Y-104120000I0J-150000D01*
G01*
X59405000Y-105520000D01*
G75*
G02*
X59255000Y-105670000I-150000J0D01*
G01*
X58955000Y-105670000D01*
G75*
G02*
X58805000Y-105520000I0J150000D01*
G01*
G37*
G36*
G01*
X66705000Y-93730000D02*
X66705000Y-91430000D01*
G75*
G02*
X66955000Y-91180000I250000J0D01*
G01*
X67455000Y-91180000D01*
G75*
G02*
X67705000Y-91430000I0J-250000D01*
G01*
X67705000Y-93730000D01*
G75*
G02*
X67455000Y-93980000I-250000J0D01*
G01*
X66955000Y-93980000D01*
G75*
G02*
X66705000Y-93730000I0J250000D01*
G01*
G37*
G36*
G01*
X56755000Y-93730000D02*
X56755000Y-91430000D01*
G75*
G02*
X57005000Y-91180000I250000J0D01*
G01*
X57505000Y-91180000D01*
G75*
G02*
X57755000Y-91430000I0J-250000D01*
G01*
X57755000Y-93730000D01*
G75*
G02*
X57505000Y-93980000I-250000J0D01*
G01*
X57005000Y-93980000D01*
G75*
G02*
X56755000Y-93730000I0J250000D01*
G01*
G37*
G36*
G01*
X65055000Y-96630000D02*
X65055000Y-95230000D01*
G75*
G02*
X65205000Y-95080000I150000J0D01*
G01*
X65505000Y-95080000D01*
G75*
G02*
X65655000Y-95230000I0J-150000D01*
G01*
X65655000Y-96630000D01*
G75*
G02*
X65505000Y-96780000I-150000J0D01*
G01*
X65205000Y-96780000D01*
G75*
G02*
X65055000Y-96630000I0J150000D01*
G01*
G37*
G36*
G01*
X63805000Y-96630000D02*
X63805000Y-95230000D01*
G75*
G02*
X63955000Y-95080000I150000J0D01*
G01*
X64255000Y-95080000D01*
G75*
G02*
X64405000Y-95230000I0J-150000D01*
G01*
X64405000Y-96630000D01*
G75*
G02*
X64255000Y-96780000I-150000J0D01*
G01*
X63955000Y-96780000D01*
G75*
G02*
X63805000Y-96630000I0J150000D01*
G01*
G37*
G36*
G01*
X62555000Y-96630000D02*
X62555000Y-95230000D01*
G75*
G02*
X62705000Y-95080000I150000J0D01*
G01*
X63005000Y-95080000D01*
G75*
G02*
X63155000Y-95230000I0J-150000D01*
G01*
X63155000Y-96630000D01*
G75*
G02*
X63005000Y-96780000I-150000J0D01*
G01*
X62705000Y-96780000D01*
G75*
G02*
X62555000Y-96630000I0J150000D01*
G01*
G37*
G36*
G01*
X61305000Y-96630000D02*
X61305000Y-95230000D01*
G75*
G02*
X61455000Y-95080000I150000J0D01*
G01*
X61755000Y-95080000D01*
G75*
G02*
X61905000Y-95230000I0J-150000D01*
G01*
X61905000Y-96630000D01*
G75*
G02*
X61755000Y-96780000I-150000J0D01*
G01*
X61455000Y-96780000D01*
G75*
G02*
X61305000Y-96630000I0J150000D01*
G01*
G37*
G36*
G01*
X60055000Y-96630000D02*
X60055000Y-95230000D01*
G75*
G02*
X60205000Y-95080000I150000J0D01*
G01*
X60505000Y-95080000D01*
G75*
G02*
X60655000Y-95230000I0J-150000D01*
G01*
X60655000Y-96630000D01*
G75*
G02*
X60505000Y-96780000I-150000J0D01*
G01*
X60205000Y-96780000D01*
G75*
G02*
X60055000Y-96630000I0J150000D01*
G01*
G37*
G36*
G01*
X58805000Y-96630000D02*
X58805000Y-95230000D01*
G75*
G02*
X58955000Y-95080000I150000J0D01*
G01*
X59255000Y-95080000D01*
G75*
G02*
X59405000Y-95230000I0J-150000D01*
G01*
X59405000Y-96630000D01*
G75*
G02*
X59255000Y-96780000I-150000J0D01*
G01*
X58955000Y-96780000D01*
G75*
G02*
X58805000Y-96630000I0J150000D01*
G01*
G37*
G36*
G01*
X47050000Y-102620000D02*
X47050000Y-100320000D01*
G75*
G02*
X47300000Y-100070000I250000J0D01*
G01*
X47800000Y-100070000D01*
G75*
G02*
X48050000Y-100320000I0J-250000D01*
G01*
X48050000Y-102620000D01*
G75*
G02*
X47800000Y-102870000I-250000J0D01*
G01*
X47300000Y-102870000D01*
G75*
G02*
X47050000Y-102620000I0J250000D01*
G01*
G37*
G36*
G01*
X40850000Y-102620000D02*
X40850000Y-100320000D01*
G75*
G02*
X41100000Y-100070000I250000J0D01*
G01*
X41600000Y-100070000D01*
G75*
G02*
X41850000Y-100320000I0J-250000D01*
G01*
X41850000Y-102620000D01*
G75*
G02*
X41600000Y-102870000I-250000J0D01*
G01*
X41100000Y-102870000D01*
G75*
G02*
X40850000Y-102620000I0J250000D01*
G01*
G37*
G36*
G01*
X45400000Y-105520000D02*
X45400000Y-104120000D01*
G75*
G02*
X45550000Y-103970000I150000J0D01*
G01*
X45850000Y-103970000D01*
G75*
G02*
X46000000Y-104120000I0J-150000D01*
G01*
X46000000Y-105520000D01*
G75*
G02*
X45850000Y-105670000I-150000J0D01*
G01*
X45550000Y-105670000D01*
G75*
G02*
X45400000Y-105520000I0J150000D01*
G01*
G37*
G36*
G01*
X44150000Y-105520000D02*
X44150000Y-104120000D01*
G75*
G02*
X44300000Y-103970000I150000J0D01*
G01*
X44600000Y-103970000D01*
G75*
G02*
X44750000Y-104120000I0J-150000D01*
G01*
X44750000Y-105520000D01*
G75*
G02*
X44600000Y-105670000I-150000J0D01*
G01*
X44300000Y-105670000D01*
G75*
G02*
X44150000Y-105520000I0J150000D01*
G01*
G37*
G36*
G01*
X42900000Y-105520000D02*
X42900000Y-104120000D01*
G75*
G02*
X43050000Y-103970000I150000J0D01*
G01*
X43350000Y-103970000D01*
G75*
G02*
X43500000Y-104120000I0J-150000D01*
G01*
X43500000Y-105520000D01*
G75*
G02*
X43350000Y-105670000I-150000J0D01*
G01*
X43050000Y-105670000D01*
G75*
G02*
X42900000Y-105520000I0J150000D01*
G01*
G37*
G36*
G01*
X47050000Y-93730000D02*
X47050000Y-91430000D01*
G75*
G02*
X47300000Y-91180000I250000J0D01*
G01*
X47800000Y-91180000D01*
G75*
G02*
X48050000Y-91430000I0J-250000D01*
G01*
X48050000Y-93730000D01*
G75*
G02*
X47800000Y-93980000I-250000J0D01*
G01*
X47300000Y-93980000D01*
G75*
G02*
X47050000Y-93730000I0J250000D01*
G01*
G37*
G36*
G01*
X40850000Y-93730000D02*
X40850000Y-91430000D01*
G75*
G02*
X41100000Y-91180000I250000J0D01*
G01*
X41600000Y-91180000D01*
G75*
G02*
X41850000Y-91430000I0J-250000D01*
G01*
X41850000Y-93730000D01*
G75*
G02*
X41600000Y-93980000I-250000J0D01*
G01*
X41100000Y-93980000D01*
G75*
G02*
X40850000Y-93730000I0J250000D01*
G01*
G37*
G36*
G01*
X45400000Y-96630000D02*
X45400000Y-95230000D01*
G75*
G02*
X45550000Y-95080000I150000J0D01*
G01*
X45850000Y-95080000D01*
G75*
G02*
X46000000Y-95230000I0J-150000D01*
G01*
X46000000Y-96630000D01*
G75*
G02*
X45850000Y-96780000I-150000J0D01*
G01*
X45550000Y-96780000D01*
G75*
G02*
X45400000Y-96630000I0J150000D01*
G01*
G37*
G36*
G01*
X44150000Y-96630000D02*
X44150000Y-95230000D01*
G75*
G02*
X44300000Y-95080000I150000J0D01*
G01*
X44600000Y-95080000D01*
G75*
G02*
X44750000Y-95230000I0J-150000D01*
G01*
X44750000Y-96630000D01*
G75*
G02*
X44600000Y-96780000I-150000J0D01*
G01*
X44300000Y-96780000D01*
G75*
G02*
X44150000Y-96630000I0J150000D01*
G01*
G37*
G36*
G01*
X42900000Y-96630000D02*
X42900000Y-95230000D01*
G75*
G02*
X43050000Y-95080000I150000J0D01*
G01*
X43350000Y-95080000D01*
G75*
G02*
X43500000Y-95230000I0J-150000D01*
G01*
X43500000Y-96630000D01*
G75*
G02*
X43350000Y-96780000I-150000J0D01*
G01*
X43050000Y-96780000D01*
G75*
G02*
X42900000Y-96630000I0J150000D01*
G01*
G37*
G36*
G01*
X30540000Y-102620000D02*
X30540000Y-100320000D01*
G75*
G02*
X30790000Y-100070000I250000J0D01*
G01*
X31290000Y-100070000D01*
G75*
G02*
X31540000Y-100320000I0J-250000D01*
G01*
X31540000Y-102620000D01*
G75*
G02*
X31290000Y-102870000I-250000J0D01*
G01*
X30790000Y-102870000D01*
G75*
G02*
X30540000Y-102620000I0J250000D01*
G01*
G37*
G36*
G01*
X24340000Y-102620000D02*
X24340000Y-100320000D01*
G75*
G02*
X24590000Y-100070000I250000J0D01*
G01*
X25090000Y-100070000D01*
G75*
G02*
X25340000Y-100320000I0J-250000D01*
G01*
X25340000Y-102620000D01*
G75*
G02*
X25090000Y-102870000I-250000J0D01*
G01*
X24590000Y-102870000D01*
G75*
G02*
X24340000Y-102620000I0J250000D01*
G01*
G37*
G36*
G01*
X28890000Y-105520000D02*
X28890000Y-104120000D01*
G75*
G02*
X29040000Y-103970000I150000J0D01*
G01*
X29340000Y-103970000D01*
G75*
G02*
X29490000Y-104120000I0J-150000D01*
G01*
X29490000Y-105520000D01*
G75*
G02*
X29340000Y-105670000I-150000J0D01*
G01*
X29040000Y-105670000D01*
G75*
G02*
X28890000Y-105520000I0J150000D01*
G01*
G37*
G36*
G01*
X27640000Y-105520000D02*
X27640000Y-104120000D01*
G75*
G02*
X27790000Y-103970000I150000J0D01*
G01*
X28090000Y-103970000D01*
G75*
G02*
X28240000Y-104120000I0J-150000D01*
G01*
X28240000Y-105520000D01*
G75*
G02*
X28090000Y-105670000I-150000J0D01*
G01*
X27790000Y-105670000D01*
G75*
G02*
X27640000Y-105520000I0J150000D01*
G01*
G37*
G36*
G01*
X26390000Y-105520000D02*
X26390000Y-104120000D01*
G75*
G02*
X26540000Y-103970000I150000J0D01*
G01*
X26840000Y-103970000D01*
G75*
G02*
X26990000Y-104120000I0J-150000D01*
G01*
X26990000Y-105520000D01*
G75*
G02*
X26840000Y-105670000I-150000J0D01*
G01*
X26540000Y-105670000D01*
G75*
G02*
X26390000Y-105520000I0J150000D01*
G01*
G37*
G36*
G01*
X104160000Y-126750000D02*
X104160000Y-124450000D01*
G75*
G02*
X104410000Y-124200000I250000J0D01*
G01*
X104910000Y-124200000D01*
G75*
G02*
X105160000Y-124450000I0J-250000D01*
G01*
X105160000Y-126750000D01*
G75*
G02*
X104910000Y-127000000I-250000J0D01*
G01*
X104410000Y-127000000D01*
G75*
G02*
X104160000Y-126750000I0J250000D01*
G01*
G37*
G36*
G01*
X92960000Y-126750000D02*
X92960000Y-124450000D01*
G75*
G02*
X93210000Y-124200000I250000J0D01*
G01*
X93710000Y-124200000D01*
G75*
G02*
X93960000Y-124450000I0J-250000D01*
G01*
X93960000Y-126750000D01*
G75*
G02*
X93710000Y-127000000I-250000J0D01*
G01*
X93210000Y-127000000D01*
G75*
G02*
X92960000Y-126750000I0J250000D01*
G01*
G37*
G36*
G01*
X102510000Y-129650000D02*
X102510000Y-128250000D01*
G75*
G02*
X102660000Y-128100000I150000J0D01*
G01*
X102960000Y-128100000D01*
G75*
G02*
X103110000Y-128250000I0J-150000D01*
G01*
X103110000Y-129650000D01*
G75*
G02*
X102960000Y-129800000I-150000J0D01*
G01*
X102660000Y-129800000D01*
G75*
G02*
X102510000Y-129650000I0J150000D01*
G01*
G37*
G36*
G01*
X101260000Y-129650000D02*
X101260000Y-128250000D01*
G75*
G02*
X101410000Y-128100000I150000J0D01*
G01*
X101710000Y-128100000D01*
G75*
G02*
X101860000Y-128250000I0J-150000D01*
G01*
X101860000Y-129650000D01*
G75*
G02*
X101710000Y-129800000I-150000J0D01*
G01*
X101410000Y-129800000D01*
G75*
G02*
X101260000Y-129650000I0J150000D01*
G01*
G37*
G36*
G01*
X100010000Y-129650000D02*
X100010000Y-128250000D01*
G75*
G02*
X100160000Y-128100000I150000J0D01*
G01*
X100460000Y-128100000D01*
G75*
G02*
X100610000Y-128250000I0J-150000D01*
G01*
X100610000Y-129650000D01*
G75*
G02*
X100460000Y-129800000I-150000J0D01*
G01*
X100160000Y-129800000D01*
G75*
G02*
X100010000Y-129650000I0J150000D01*
G01*
G37*
G36*
G01*
X98760000Y-129650000D02*
X98760000Y-128250000D01*
G75*
G02*
X98910000Y-128100000I150000J0D01*
G01*
X99210000Y-128100000D01*
G75*
G02*
X99360000Y-128250000I0J-150000D01*
G01*
X99360000Y-129650000D01*
G75*
G02*
X99210000Y-129800000I-150000J0D01*
G01*
X98910000Y-129800000D01*
G75*
G02*
X98760000Y-129650000I0J150000D01*
G01*
G37*
G36*
G01*
X97510000Y-129650000D02*
X97510000Y-128250000D01*
G75*
G02*
X97660000Y-128100000I150000J0D01*
G01*
X97960000Y-128100000D01*
G75*
G02*
X98110000Y-128250000I0J-150000D01*
G01*
X98110000Y-129650000D01*
G75*
G02*
X97960000Y-129800000I-150000J0D01*
G01*
X97660000Y-129800000D01*
G75*
G02*
X97510000Y-129650000I0J150000D01*
G01*
G37*
G36*
G01*
X96260000Y-129650000D02*
X96260000Y-128250000D01*
G75*
G02*
X96410000Y-128100000I150000J0D01*
G01*
X96710000Y-128100000D01*
G75*
G02*
X96860000Y-128250000I0J-150000D01*
G01*
X96860000Y-129650000D01*
G75*
G02*
X96710000Y-129800000I-150000J0D01*
G01*
X96410000Y-129800000D01*
G75*
G02*
X96260000Y-129650000I0J150000D01*
G01*
G37*
G36*
G01*
X95010000Y-129650000D02*
X95010000Y-128250000D01*
G75*
G02*
X95160000Y-128100000I150000J0D01*
G01*
X95460000Y-128100000D01*
G75*
G02*
X95610000Y-128250000I0J-150000D01*
G01*
X95610000Y-129650000D01*
G75*
G02*
X95460000Y-129800000I-150000J0D01*
G01*
X95160000Y-129800000D01*
G75*
G02*
X95010000Y-129650000I0J150000D01*
G01*
G37*
G36*
G01*
X104160000Y-117860000D02*
X104160000Y-115560000D01*
G75*
G02*
X104410000Y-115310000I250000J0D01*
G01*
X104910000Y-115310000D01*
G75*
G02*
X105160000Y-115560000I0J-250000D01*
G01*
X105160000Y-117860000D01*
G75*
G02*
X104910000Y-118110000I-250000J0D01*
G01*
X104410000Y-118110000D01*
G75*
G02*
X104160000Y-117860000I0J250000D01*
G01*
G37*
G36*
G01*
X92960000Y-117860000D02*
X92960000Y-115560000D01*
G75*
G02*
X93210000Y-115310000I250000J0D01*
G01*
X93710000Y-115310000D01*
G75*
G02*
X93960000Y-115560000I0J-250000D01*
G01*
X93960000Y-117860000D01*
G75*
G02*
X93710000Y-118110000I-250000J0D01*
G01*
X93210000Y-118110000D01*
G75*
G02*
X92960000Y-117860000I0J250000D01*
G01*
G37*
G36*
G01*
X102510000Y-120760000D02*
X102510000Y-119360000D01*
G75*
G02*
X102660000Y-119210000I150000J0D01*
G01*
X102960000Y-119210000D01*
G75*
G02*
X103110000Y-119360000I0J-150000D01*
G01*
X103110000Y-120760000D01*
G75*
G02*
X102960000Y-120910000I-150000J0D01*
G01*
X102660000Y-120910000D01*
G75*
G02*
X102510000Y-120760000I0J150000D01*
G01*
G37*
G36*
G01*
X101260000Y-120760000D02*
X101260000Y-119360000D01*
G75*
G02*
X101410000Y-119210000I150000J0D01*
G01*
X101710000Y-119210000D01*
G75*
G02*
X101860000Y-119360000I0J-150000D01*
G01*
X101860000Y-120760000D01*
G75*
G02*
X101710000Y-120910000I-150000J0D01*
G01*
X101410000Y-120910000D01*
G75*
G02*
X101260000Y-120760000I0J150000D01*
G01*
G37*
G36*
G01*
X100010000Y-120760000D02*
X100010000Y-119360000D01*
G75*
G02*
X100160000Y-119210000I150000J0D01*
G01*
X100460000Y-119210000D01*
G75*
G02*
X100610000Y-119360000I0J-150000D01*
G01*
X100610000Y-120760000D01*
G75*
G02*
X100460000Y-120910000I-150000J0D01*
G01*
X100160000Y-120910000D01*
G75*
G02*
X100010000Y-120760000I0J150000D01*
G01*
G37*
G36*
G01*
X98760000Y-120760000D02*
X98760000Y-119360000D01*
G75*
G02*
X98910000Y-119210000I150000J0D01*
G01*
X99210000Y-119210000D01*
G75*
G02*
X99360000Y-119360000I0J-150000D01*
G01*
X99360000Y-120760000D01*
G75*
G02*
X99210000Y-120910000I-150000J0D01*
G01*
X98910000Y-120910000D01*
G75*
G02*
X98760000Y-120760000I0J150000D01*
G01*
G37*
G36*
G01*
X97510000Y-120760000D02*
X97510000Y-119360000D01*
G75*
G02*
X97660000Y-119210000I150000J0D01*
G01*
X97960000Y-119210000D01*
G75*
G02*
X98110000Y-119360000I0J-150000D01*
G01*
X98110000Y-120760000D01*
G75*
G02*
X97960000Y-120910000I-150000J0D01*
G01*
X97660000Y-120910000D01*
G75*
G02*
X97510000Y-120760000I0J150000D01*
G01*
G37*
G36*
G01*
X96260000Y-120760000D02*
X96260000Y-119360000D01*
G75*
G02*
X96410000Y-119210000I150000J0D01*
G01*
X96710000Y-119210000D01*
G75*
G02*
X96860000Y-119360000I0J-150000D01*
G01*
X96860000Y-120760000D01*
G75*
G02*
X96710000Y-120910000I-150000J0D01*
G01*
X96410000Y-120910000D01*
G75*
G02*
X96260000Y-120760000I0J150000D01*
G01*
G37*
G36*
G01*
X95010000Y-120760000D02*
X95010000Y-119360000D01*
G75*
G02*
X95160000Y-119210000I150000J0D01*
G01*
X95460000Y-119210000D01*
G75*
G02*
X95610000Y-119360000I0J-150000D01*
G01*
X95610000Y-120760000D01*
G75*
G02*
X95460000Y-120910000I-150000J0D01*
G01*
X95160000Y-120910000D01*
G75*
G02*
X95010000Y-120760000I0J150000D01*
G01*
G37*
G36*
G01*
X107345000Y-102620000D02*
X107345000Y-100320000D01*
G75*
G02*
X107595000Y-100070000I250000J0D01*
G01*
X108095000Y-100070000D01*
G75*
G02*
X108345000Y-100320000I0J-250000D01*
G01*
X108345000Y-102620000D01*
G75*
G02*
X108095000Y-102870000I-250000J0D01*
G01*
X107595000Y-102870000D01*
G75*
G02*
X107345000Y-102620000I0J250000D01*
G01*
G37*
G36*
G01*
X97395000Y-102620000D02*
X97395000Y-100320000D01*
G75*
G02*
X97645000Y-100070000I250000J0D01*
G01*
X98145000Y-100070000D01*
G75*
G02*
X98395000Y-100320000I0J-250000D01*
G01*
X98395000Y-102620000D01*
G75*
G02*
X98145000Y-102870000I-250000J0D01*
G01*
X97645000Y-102870000D01*
G75*
G02*
X97395000Y-102620000I0J250000D01*
G01*
G37*
G36*
G01*
X105695000Y-105520000D02*
X105695000Y-104120000D01*
G75*
G02*
X105845000Y-103970000I150000J0D01*
G01*
X106145000Y-103970000D01*
G75*
G02*
X106295000Y-104120000I0J-150000D01*
G01*
X106295000Y-105520000D01*
G75*
G02*
X106145000Y-105670000I-150000J0D01*
G01*
X105845000Y-105670000D01*
G75*
G02*
X105695000Y-105520000I0J150000D01*
G01*
G37*
G36*
G01*
X104445000Y-105520000D02*
X104445000Y-104120000D01*
G75*
G02*
X104595000Y-103970000I150000J0D01*
G01*
X104895000Y-103970000D01*
G75*
G02*
X105045000Y-104120000I0J-150000D01*
G01*
X105045000Y-105520000D01*
G75*
G02*
X104895000Y-105670000I-150000J0D01*
G01*
X104595000Y-105670000D01*
G75*
G02*
X104445000Y-105520000I0J150000D01*
G01*
G37*
G36*
G01*
X103195000Y-105520000D02*
X103195000Y-104120000D01*
G75*
G02*
X103345000Y-103970000I150000J0D01*
G01*
X103645000Y-103970000D01*
G75*
G02*
X103795000Y-104120000I0J-150000D01*
G01*
X103795000Y-105520000D01*
G75*
G02*
X103645000Y-105670000I-150000J0D01*
G01*
X103345000Y-105670000D01*
G75*
G02*
X103195000Y-105520000I0J150000D01*
G01*
G37*
G36*
G01*
X101945000Y-105520000D02*
X101945000Y-104120000D01*
G75*
G02*
X102095000Y-103970000I150000J0D01*
G01*
X102395000Y-103970000D01*
G75*
G02*
X102545000Y-104120000I0J-150000D01*
G01*
X102545000Y-105520000D01*
G75*
G02*
X102395000Y-105670000I-150000J0D01*
G01*
X102095000Y-105670000D01*
G75*
G02*
X101945000Y-105520000I0J150000D01*
G01*
G37*
G36*
G01*
X100695000Y-105520000D02*
X100695000Y-104120000D01*
G75*
G02*
X100845000Y-103970000I150000J0D01*
G01*
X101145000Y-103970000D01*
G75*
G02*
X101295000Y-104120000I0J-150000D01*
G01*
X101295000Y-105520000D01*
G75*
G02*
X101145000Y-105670000I-150000J0D01*
G01*
X100845000Y-105670000D01*
G75*
G02*
X100695000Y-105520000I0J150000D01*
G01*
G37*
G36*
G01*
X99445000Y-105520000D02*
X99445000Y-104120000D01*
G75*
G02*
X99595000Y-103970000I150000J0D01*
G01*
X99895000Y-103970000D01*
G75*
G02*
X100045000Y-104120000I0J-150000D01*
G01*
X100045000Y-105520000D01*
G75*
G02*
X99895000Y-105670000I-150000J0D01*
G01*
X99595000Y-105670000D01*
G75*
G02*
X99445000Y-105520000I0J150000D01*
G01*
G37*
G36*
G01*
X107345000Y-93730000D02*
X107345000Y-91430000D01*
G75*
G02*
X107595000Y-91180000I250000J0D01*
G01*
X108095000Y-91180000D01*
G75*
G02*
X108345000Y-91430000I0J-250000D01*
G01*
X108345000Y-93730000D01*
G75*
G02*
X108095000Y-93980000I-250000J0D01*
G01*
X107595000Y-93980000D01*
G75*
G02*
X107345000Y-93730000I0J250000D01*
G01*
G37*
G36*
G01*
X97395000Y-93730000D02*
X97395000Y-91430000D01*
G75*
G02*
X97645000Y-91180000I250000J0D01*
G01*
X98145000Y-91180000D01*
G75*
G02*
X98395000Y-91430000I0J-250000D01*
G01*
X98395000Y-93730000D01*
G75*
G02*
X98145000Y-93980000I-250000J0D01*
G01*
X97645000Y-93980000D01*
G75*
G02*
X97395000Y-93730000I0J250000D01*
G01*
G37*
G36*
G01*
X105695000Y-96630000D02*
X105695000Y-95230000D01*
G75*
G02*
X105845000Y-95080000I150000J0D01*
G01*
X106145000Y-95080000D01*
G75*
G02*
X106295000Y-95230000I0J-150000D01*
G01*
X106295000Y-96630000D01*
G75*
G02*
X106145000Y-96780000I-150000J0D01*
G01*
X105845000Y-96780000D01*
G75*
G02*
X105695000Y-96630000I0J150000D01*
G01*
G37*
G36*
G01*
X104445000Y-96630000D02*
X104445000Y-95230000D01*
G75*
G02*
X104595000Y-95080000I150000J0D01*
G01*
X104895000Y-95080000D01*
G75*
G02*
X105045000Y-95230000I0J-150000D01*
G01*
X105045000Y-96630000D01*
G75*
G02*
X104895000Y-96780000I-150000J0D01*
G01*
X104595000Y-96780000D01*
G75*
G02*
X104445000Y-96630000I0J150000D01*
G01*
G37*
G36*
G01*
X103195000Y-96630000D02*
X103195000Y-95230000D01*
G75*
G02*
X103345000Y-95080000I150000J0D01*
G01*
X103645000Y-95080000D01*
G75*
G02*
X103795000Y-95230000I0J-150000D01*
G01*
X103795000Y-96630000D01*
G75*
G02*
X103645000Y-96780000I-150000J0D01*
G01*
X103345000Y-96780000D01*
G75*
G02*
X103195000Y-96630000I0J150000D01*
G01*
G37*
G36*
G01*
X101945000Y-96630000D02*
X101945000Y-95230000D01*
G75*
G02*
X102095000Y-95080000I150000J0D01*
G01*
X102395000Y-95080000D01*
G75*
G02*
X102545000Y-95230000I0J-150000D01*
G01*
X102545000Y-96630000D01*
G75*
G02*
X102395000Y-96780000I-150000J0D01*
G01*
X102095000Y-96780000D01*
G75*
G02*
X101945000Y-96630000I0J150000D01*
G01*
G37*
G36*
G01*
X100695000Y-96630000D02*
X100695000Y-95230000D01*
G75*
G02*
X100845000Y-95080000I150000J0D01*
G01*
X101145000Y-95080000D01*
G75*
G02*
X101295000Y-95230000I0J-150000D01*
G01*
X101295000Y-96630000D01*
G75*
G02*
X101145000Y-96780000I-150000J0D01*
G01*
X100845000Y-96780000D01*
G75*
G02*
X100695000Y-96630000I0J150000D01*
G01*
G37*
G36*
G01*
X99445000Y-96630000D02*
X99445000Y-95230000D01*
G75*
G02*
X99595000Y-95080000I150000J0D01*
G01*
X99895000Y-95080000D01*
G75*
G02*
X100045000Y-95230000I0J-150000D01*
G01*
X100045000Y-96630000D01*
G75*
G02*
X99895000Y-96780000I-150000J0D01*
G01*
X99595000Y-96780000D01*
G75*
G02*
X99445000Y-96630000I0J150000D01*
G01*
G37*
G36*
G01*
X123855000Y-126750000D02*
X123855000Y-124450000D01*
G75*
G02*
X124105000Y-124200000I250000J0D01*
G01*
X124605000Y-124200000D01*
G75*
G02*
X124855000Y-124450000I0J-250000D01*
G01*
X124855000Y-126750000D01*
G75*
G02*
X124605000Y-127000000I-250000J0D01*
G01*
X124105000Y-127000000D01*
G75*
G02*
X123855000Y-126750000I0J250000D01*
G01*
G37*
G36*
G01*
X113905000Y-126750000D02*
X113905000Y-124450000D01*
G75*
G02*
X114155000Y-124200000I250000J0D01*
G01*
X114655000Y-124200000D01*
G75*
G02*
X114905000Y-124450000I0J-250000D01*
G01*
X114905000Y-126750000D01*
G75*
G02*
X114655000Y-127000000I-250000J0D01*
G01*
X114155000Y-127000000D01*
G75*
G02*
X113905000Y-126750000I0J250000D01*
G01*
G37*
G36*
G01*
X122205000Y-129650000D02*
X122205000Y-128250000D01*
G75*
G02*
X122355000Y-128100000I150000J0D01*
G01*
X122655000Y-128100000D01*
G75*
G02*
X122805000Y-128250000I0J-150000D01*
G01*
X122805000Y-129650000D01*
G75*
G02*
X122655000Y-129800000I-150000J0D01*
G01*
X122355000Y-129800000D01*
G75*
G02*
X122205000Y-129650000I0J150000D01*
G01*
G37*
G36*
G01*
X120955000Y-129650000D02*
X120955000Y-128250000D01*
G75*
G02*
X121105000Y-128100000I150000J0D01*
G01*
X121405000Y-128100000D01*
G75*
G02*
X121555000Y-128250000I0J-150000D01*
G01*
X121555000Y-129650000D01*
G75*
G02*
X121405000Y-129800000I-150000J0D01*
G01*
X121105000Y-129800000D01*
G75*
G02*
X120955000Y-129650000I0J150000D01*
G01*
G37*
G36*
G01*
X119705000Y-129650000D02*
X119705000Y-128250000D01*
G75*
G02*
X119855000Y-128100000I150000J0D01*
G01*
X120155000Y-128100000D01*
G75*
G02*
X120305000Y-128250000I0J-150000D01*
G01*
X120305000Y-129650000D01*
G75*
G02*
X120155000Y-129800000I-150000J0D01*
G01*
X119855000Y-129800000D01*
G75*
G02*
X119705000Y-129650000I0J150000D01*
G01*
G37*
G36*
G01*
X118455000Y-129650000D02*
X118455000Y-128250000D01*
G75*
G02*
X118605000Y-128100000I150000J0D01*
G01*
X118905000Y-128100000D01*
G75*
G02*
X119055000Y-128250000I0J-150000D01*
G01*
X119055000Y-129650000D01*
G75*
G02*
X118905000Y-129800000I-150000J0D01*
G01*
X118605000Y-129800000D01*
G75*
G02*
X118455000Y-129650000I0J150000D01*
G01*
G37*
G36*
G01*
X117205000Y-129650000D02*
X117205000Y-128250000D01*
G75*
G02*
X117355000Y-128100000I150000J0D01*
G01*
X117655000Y-128100000D01*
G75*
G02*
X117805000Y-128250000I0J-150000D01*
G01*
X117805000Y-129650000D01*
G75*
G02*
X117655000Y-129800000I-150000J0D01*
G01*
X117355000Y-129800000D01*
G75*
G02*
X117205000Y-129650000I0J150000D01*
G01*
G37*
G36*
G01*
X115955000Y-129650000D02*
X115955000Y-128250000D01*
G75*
G02*
X116105000Y-128100000I150000J0D01*
G01*
X116405000Y-128100000D01*
G75*
G02*
X116555000Y-128250000I0J-150000D01*
G01*
X116555000Y-129650000D01*
G75*
G02*
X116405000Y-129800000I-150000J0D01*
G01*
X116105000Y-129800000D01*
G75*
G02*
X115955000Y-129650000I0J150000D01*
G01*
G37*
G36*
G01*
X123855000Y-117860000D02*
X123855000Y-115560000D01*
G75*
G02*
X124105000Y-115310000I250000J0D01*
G01*
X124605000Y-115310000D01*
G75*
G02*
X124855000Y-115560000I0J-250000D01*
G01*
X124855000Y-117860000D01*
G75*
G02*
X124605000Y-118110000I-250000J0D01*
G01*
X124105000Y-118110000D01*
G75*
G02*
X123855000Y-117860000I0J250000D01*
G01*
G37*
G36*
G01*
X113905000Y-117860000D02*
X113905000Y-115560000D01*
G75*
G02*
X114155000Y-115310000I250000J0D01*
G01*
X114655000Y-115310000D01*
G75*
G02*
X114905000Y-115560000I0J-250000D01*
G01*
X114905000Y-117860000D01*
G75*
G02*
X114655000Y-118110000I-250000J0D01*
G01*
X114155000Y-118110000D01*
G75*
G02*
X113905000Y-117860000I0J250000D01*
G01*
G37*
G36*
G01*
X122205000Y-120760000D02*
X122205000Y-119360000D01*
G75*
G02*
X122355000Y-119210000I150000J0D01*
G01*
X122655000Y-119210000D01*
G75*
G02*
X122805000Y-119360000I0J-150000D01*
G01*
X122805000Y-120760000D01*
G75*
G02*
X122655000Y-120910000I-150000J0D01*
G01*
X122355000Y-120910000D01*
G75*
G02*
X122205000Y-120760000I0J150000D01*
G01*
G37*
G36*
G01*
X120955000Y-120760000D02*
X120955000Y-119360000D01*
G75*
G02*
X121105000Y-119210000I150000J0D01*
G01*
X121405000Y-119210000D01*
G75*
G02*
X121555000Y-119360000I0J-150000D01*
G01*
X121555000Y-120760000D01*
G75*
G02*
X121405000Y-120910000I-150000J0D01*
G01*
X121105000Y-120910000D01*
G75*
G02*
X120955000Y-120760000I0J150000D01*
G01*
G37*
G36*
G01*
X119705000Y-120760000D02*
X119705000Y-119360000D01*
G75*
G02*
X119855000Y-119210000I150000J0D01*
G01*
X120155000Y-119210000D01*
G75*
G02*
X120305000Y-119360000I0J-150000D01*
G01*
X120305000Y-120760000D01*
G75*
G02*
X120155000Y-120910000I-150000J0D01*
G01*
X119855000Y-120910000D01*
G75*
G02*
X119705000Y-120760000I0J150000D01*
G01*
G37*
G36*
G01*
X118455000Y-120760000D02*
X118455000Y-119360000D01*
G75*
G02*
X118605000Y-119210000I150000J0D01*
G01*
X118905000Y-119210000D01*
G75*
G02*
X119055000Y-119360000I0J-150000D01*
G01*
X119055000Y-120760000D01*
G75*
G02*
X118905000Y-120910000I-150000J0D01*
G01*
X118605000Y-120910000D01*
G75*
G02*
X118455000Y-120760000I0J150000D01*
G01*
G37*
G36*
G01*
X117205000Y-120760000D02*
X117205000Y-119360000D01*
G75*
G02*
X117355000Y-119210000I150000J0D01*
G01*
X117655000Y-119210000D01*
G75*
G02*
X117805000Y-119360000I0J-150000D01*
G01*
X117805000Y-120760000D01*
G75*
G02*
X117655000Y-120910000I-150000J0D01*
G01*
X117355000Y-120910000D01*
G75*
G02*
X117205000Y-120760000I0J150000D01*
G01*
G37*
G36*
G01*
X115955000Y-120760000D02*
X115955000Y-119360000D01*
G75*
G02*
X116105000Y-119210000I150000J0D01*
G01*
X116405000Y-119210000D01*
G75*
G02*
X116555000Y-119360000I0J-150000D01*
G01*
X116555000Y-120760000D01*
G75*
G02*
X116405000Y-120910000I-150000J0D01*
G01*
X116105000Y-120910000D01*
G75*
G02*
X115955000Y-120760000I0J150000D01*
G01*
G37*
G36*
G01*
X126395000Y-102620000D02*
X126395000Y-100320000D01*
G75*
G02*
X126645000Y-100070000I250000J0D01*
G01*
X127145000Y-100070000D01*
G75*
G02*
X127395000Y-100320000I0J-250000D01*
G01*
X127395000Y-102620000D01*
G75*
G02*
X127145000Y-102870000I-250000J0D01*
G01*
X126645000Y-102870000D01*
G75*
G02*
X126395000Y-102620000I0J250000D01*
G01*
G37*
G36*
G01*
X116445000Y-102620000D02*
X116445000Y-100320000D01*
G75*
G02*
X116695000Y-100070000I250000J0D01*
G01*
X117195000Y-100070000D01*
G75*
G02*
X117445000Y-100320000I0J-250000D01*
G01*
X117445000Y-102620000D01*
G75*
G02*
X117195000Y-102870000I-250000J0D01*
G01*
X116695000Y-102870000D01*
G75*
G02*
X116445000Y-102620000I0J250000D01*
G01*
G37*
G36*
G01*
X124745000Y-105520000D02*
X124745000Y-104120000D01*
G75*
G02*
X124895000Y-103970000I150000J0D01*
G01*
X125195000Y-103970000D01*
G75*
G02*
X125345000Y-104120000I0J-150000D01*
G01*
X125345000Y-105520000D01*
G75*
G02*
X125195000Y-105670000I-150000J0D01*
G01*
X124895000Y-105670000D01*
G75*
G02*
X124745000Y-105520000I0J150000D01*
G01*
G37*
G36*
G01*
X123495000Y-105520000D02*
X123495000Y-104120000D01*
G75*
G02*
X123645000Y-103970000I150000J0D01*
G01*
X123945000Y-103970000D01*
G75*
G02*
X124095000Y-104120000I0J-150000D01*
G01*
X124095000Y-105520000D01*
G75*
G02*
X123945000Y-105670000I-150000J0D01*
G01*
X123645000Y-105670000D01*
G75*
G02*
X123495000Y-105520000I0J150000D01*
G01*
G37*
G36*
G01*
X122245000Y-105520000D02*
X122245000Y-104120000D01*
G75*
G02*
X122395000Y-103970000I150000J0D01*
G01*
X122695000Y-103970000D01*
G75*
G02*
X122845000Y-104120000I0J-150000D01*
G01*
X122845000Y-105520000D01*
G75*
G02*
X122695000Y-105670000I-150000J0D01*
G01*
X122395000Y-105670000D01*
G75*
G02*
X122245000Y-105520000I0J150000D01*
G01*
G37*
G36*
G01*
X120995000Y-105520000D02*
X120995000Y-104120000D01*
G75*
G02*
X121145000Y-103970000I150000J0D01*
G01*
X121445000Y-103970000D01*
G75*
G02*
X121595000Y-104120000I0J-150000D01*
G01*
X121595000Y-105520000D01*
G75*
G02*
X121445000Y-105670000I-150000J0D01*
G01*
X121145000Y-105670000D01*
G75*
G02*
X120995000Y-105520000I0J150000D01*
G01*
G37*
G36*
G01*
X119745000Y-105520000D02*
X119745000Y-104120000D01*
G75*
G02*
X119895000Y-103970000I150000J0D01*
G01*
X120195000Y-103970000D01*
G75*
G02*
X120345000Y-104120000I0J-150000D01*
G01*
X120345000Y-105520000D01*
G75*
G02*
X120195000Y-105670000I-150000J0D01*
G01*
X119895000Y-105670000D01*
G75*
G02*
X119745000Y-105520000I0J150000D01*
G01*
G37*
G36*
G01*
X118495000Y-105520000D02*
X118495000Y-104120000D01*
G75*
G02*
X118645000Y-103970000I150000J0D01*
G01*
X118945000Y-103970000D01*
G75*
G02*
X119095000Y-104120000I0J-150000D01*
G01*
X119095000Y-105520000D01*
G75*
G02*
X118945000Y-105670000I-150000J0D01*
G01*
X118645000Y-105670000D01*
G75*
G02*
X118495000Y-105520000I0J150000D01*
G01*
G37*
G36*
G01*
X126290000Y-93860000D02*
X126290000Y-91560000D01*
G75*
G02*
X126540000Y-91310000I250000J0D01*
G01*
X127040000Y-91310000D01*
G75*
G02*
X127290000Y-91560000I0J-250000D01*
G01*
X127290000Y-93860000D01*
G75*
G02*
X127040000Y-94110000I-250000J0D01*
G01*
X126540000Y-94110000D01*
G75*
G02*
X126290000Y-93860000I0J250000D01*
G01*
G37*
G36*
G01*
X116340000Y-93860000D02*
X116340000Y-91560000D01*
G75*
G02*
X116590000Y-91310000I250000J0D01*
G01*
X117090000Y-91310000D01*
G75*
G02*
X117340000Y-91560000I0J-250000D01*
G01*
X117340000Y-93860000D01*
G75*
G02*
X117090000Y-94110000I-250000J0D01*
G01*
X116590000Y-94110000D01*
G75*
G02*
X116340000Y-93860000I0J250000D01*
G01*
G37*
G36*
G01*
X124640000Y-96760000D02*
X124640000Y-95360000D01*
G75*
G02*
X124790000Y-95210000I150000J0D01*
G01*
X125090000Y-95210000D01*
G75*
G02*
X125240000Y-95360000I0J-150000D01*
G01*
X125240000Y-96760000D01*
G75*
G02*
X125090000Y-96910000I-150000J0D01*
G01*
X124790000Y-96910000D01*
G75*
G02*
X124640000Y-96760000I0J150000D01*
G01*
G37*
G36*
G01*
X123390000Y-96760000D02*
X123390000Y-95360000D01*
G75*
G02*
X123540000Y-95210000I150000J0D01*
G01*
X123840000Y-95210000D01*
G75*
G02*
X123990000Y-95360000I0J-150000D01*
G01*
X123990000Y-96760000D01*
G75*
G02*
X123840000Y-96910000I-150000J0D01*
G01*
X123540000Y-96910000D01*
G75*
G02*
X123390000Y-96760000I0J150000D01*
G01*
G37*
G36*
G01*
X122140000Y-96760000D02*
X122140000Y-95360000D01*
G75*
G02*
X122290000Y-95210000I150000J0D01*
G01*
X122590000Y-95210000D01*
G75*
G02*
X122740000Y-95360000I0J-150000D01*
G01*
X122740000Y-96760000D01*
G75*
G02*
X122590000Y-96910000I-150000J0D01*
G01*
X122290000Y-96910000D01*
G75*
G02*
X122140000Y-96760000I0J150000D01*
G01*
G37*
G36*
G01*
X120890000Y-96760000D02*
X120890000Y-95360000D01*
G75*
G02*
X121040000Y-95210000I150000J0D01*
G01*
X121340000Y-95210000D01*
G75*
G02*
X121490000Y-95360000I0J-150000D01*
G01*
X121490000Y-96760000D01*
G75*
G02*
X121340000Y-96910000I-150000J0D01*
G01*
X121040000Y-96910000D01*
G75*
G02*
X120890000Y-96760000I0J150000D01*
G01*
G37*
G36*
G01*
X119640000Y-96760000D02*
X119640000Y-95360000D01*
G75*
G02*
X119790000Y-95210000I150000J0D01*
G01*
X120090000Y-95210000D01*
G75*
G02*
X120240000Y-95360000I0J-150000D01*
G01*
X120240000Y-96760000D01*
G75*
G02*
X120090000Y-96910000I-150000J0D01*
G01*
X119790000Y-96910000D01*
G75*
G02*
X119640000Y-96760000I0J150000D01*
G01*
G37*
G36*
G01*
X118390000Y-96760000D02*
X118390000Y-95360000D01*
G75*
G02*
X118540000Y-95210000I150000J0D01*
G01*
X118840000Y-95210000D01*
G75*
G02*
X118990000Y-95360000I0J-150000D01*
G01*
X118990000Y-96760000D01*
G75*
G02*
X118840000Y-96910000I-150000J0D01*
G01*
X118540000Y-96910000D01*
G75*
G02*
X118390000Y-96760000I0J150000D01*
G01*
G37*
G36*
G01*
X48945000Y-126750000D02*
X48945000Y-124450000D01*
G75*
G02*
X49195000Y-124200000I250000J0D01*
G01*
X49695000Y-124200000D01*
G75*
G02*
X49945000Y-124450000I0J-250000D01*
G01*
X49945000Y-126750000D01*
G75*
G02*
X49695000Y-127000000I-250000J0D01*
G01*
X49195000Y-127000000D01*
G75*
G02*
X48945000Y-126750000I0J250000D01*
G01*
G37*
G36*
G01*
X41495000Y-126750000D02*
X41495000Y-124450000D01*
G75*
G02*
X41745000Y-124200000I250000J0D01*
G01*
X42245000Y-124200000D01*
G75*
G02*
X42495000Y-124450000I0J-250000D01*
G01*
X42495000Y-126750000D01*
G75*
G02*
X42245000Y-127000000I-250000J0D01*
G01*
X41745000Y-127000000D01*
G75*
G02*
X41495000Y-126750000I0J250000D01*
G01*
G37*
G36*
G01*
X47295000Y-129650000D02*
X47295000Y-128250000D01*
G75*
G02*
X47445000Y-128100000I150000J0D01*
G01*
X47745000Y-128100000D01*
G75*
G02*
X47895000Y-128250000I0J-150000D01*
G01*
X47895000Y-129650000D01*
G75*
G02*
X47745000Y-129800000I-150000J0D01*
G01*
X47445000Y-129800000D01*
G75*
G02*
X47295000Y-129650000I0J150000D01*
G01*
G37*
G36*
G01*
X46045000Y-129650000D02*
X46045000Y-128250000D01*
G75*
G02*
X46195000Y-128100000I150000J0D01*
G01*
X46495000Y-128100000D01*
G75*
G02*
X46645000Y-128250000I0J-150000D01*
G01*
X46645000Y-129650000D01*
G75*
G02*
X46495000Y-129800000I-150000J0D01*
G01*
X46195000Y-129800000D01*
G75*
G02*
X46045000Y-129650000I0J150000D01*
G01*
G37*
G36*
G01*
X44795000Y-129650000D02*
X44795000Y-128250000D01*
G75*
G02*
X44945000Y-128100000I150000J0D01*
G01*
X45245000Y-128100000D01*
G75*
G02*
X45395000Y-128250000I0J-150000D01*
G01*
X45395000Y-129650000D01*
G75*
G02*
X45245000Y-129800000I-150000J0D01*
G01*
X44945000Y-129800000D01*
G75*
G02*
X44795000Y-129650000I0J150000D01*
G01*
G37*
G36*
G01*
X43545000Y-129650000D02*
X43545000Y-128250000D01*
G75*
G02*
X43695000Y-128100000I150000J0D01*
G01*
X43995000Y-128100000D01*
G75*
G02*
X44145000Y-128250000I0J-150000D01*
G01*
X44145000Y-129650000D01*
G75*
G02*
X43995000Y-129800000I-150000J0D01*
G01*
X43695000Y-129800000D01*
G75*
G02*
X43545000Y-129650000I0J150000D01*
G01*
G37*
G36*
G01*
X48945000Y-117860000D02*
X48945000Y-115560000D01*
G75*
G02*
X49195000Y-115310000I250000J0D01*
G01*
X49695000Y-115310000D01*
G75*
G02*
X49945000Y-115560000I0J-250000D01*
G01*
X49945000Y-117860000D01*
G75*
G02*
X49695000Y-118110000I-250000J0D01*
G01*
X49195000Y-118110000D01*
G75*
G02*
X48945000Y-117860000I0J250000D01*
G01*
G37*
G36*
G01*
X41495000Y-117860000D02*
X41495000Y-115560000D01*
G75*
G02*
X41745000Y-115310000I250000J0D01*
G01*
X42245000Y-115310000D01*
G75*
G02*
X42495000Y-115560000I0J-250000D01*
G01*
X42495000Y-117860000D01*
G75*
G02*
X42245000Y-118110000I-250000J0D01*
G01*
X41745000Y-118110000D01*
G75*
G02*
X41495000Y-117860000I0J250000D01*
G01*
G37*
G36*
G01*
X47295000Y-120760000D02*
X47295000Y-119360000D01*
G75*
G02*
X47445000Y-119210000I150000J0D01*
G01*
X47745000Y-119210000D01*
G75*
G02*
X47895000Y-119360000I0J-150000D01*
G01*
X47895000Y-120760000D01*
G75*
G02*
X47745000Y-120910000I-150000J0D01*
G01*
X47445000Y-120910000D01*
G75*
G02*
X47295000Y-120760000I0J150000D01*
G01*
G37*
G36*
G01*
X46045000Y-120760000D02*
X46045000Y-119360000D01*
G75*
G02*
X46195000Y-119210000I150000J0D01*
G01*
X46495000Y-119210000D01*
G75*
G02*
X46645000Y-119360000I0J-150000D01*
G01*
X46645000Y-120760000D01*
G75*
G02*
X46495000Y-120910000I-150000J0D01*
G01*
X46195000Y-120910000D01*
G75*
G02*
X46045000Y-120760000I0J150000D01*
G01*
G37*
G36*
G01*
X44795000Y-120760000D02*
X44795000Y-119360000D01*
G75*
G02*
X44945000Y-119210000I150000J0D01*
G01*
X45245000Y-119210000D01*
G75*
G02*
X45395000Y-119360000I0J-150000D01*
G01*
X45395000Y-120760000D01*
G75*
G02*
X45245000Y-120910000I-150000J0D01*
G01*
X44945000Y-120910000D01*
G75*
G02*
X44795000Y-120760000I0J150000D01*
G01*
G37*
G36*
G01*
X43545000Y-120760000D02*
X43545000Y-119360000D01*
G75*
G02*
X43695000Y-119210000I150000J0D01*
G01*
X43995000Y-119210000D01*
G75*
G02*
X44145000Y-119360000I0J-150000D01*
G01*
X44145000Y-120760000D01*
G75*
G02*
X43995000Y-120910000I-150000J0D01*
G01*
X43695000Y-120910000D01*
G75*
G02*
X43545000Y-120760000I0J150000D01*
G01*
G37*
G36*
G01*
X141030000Y-126750000D02*
X141030000Y-124450000D01*
G75*
G02*
X141280000Y-124200000I250000J0D01*
G01*
X141780000Y-124200000D01*
G75*
G02*
X142030000Y-124450000I0J-250000D01*
G01*
X142030000Y-126750000D01*
G75*
G02*
X141780000Y-127000000I-250000J0D01*
G01*
X141280000Y-127000000D01*
G75*
G02*
X141030000Y-126750000I0J250000D01*
G01*
G37*
G36*
G01*
X134830000Y-126750000D02*
X134830000Y-124450000D01*
G75*
G02*
X135080000Y-124200000I250000J0D01*
G01*
X135580000Y-124200000D01*
G75*
G02*
X135830000Y-124450000I0J-250000D01*
G01*
X135830000Y-126750000D01*
G75*
G02*
X135580000Y-127000000I-250000J0D01*
G01*
X135080000Y-127000000D01*
G75*
G02*
X134830000Y-126750000I0J250000D01*
G01*
G37*
G36*
G01*
X139380000Y-129650000D02*
X139380000Y-128250000D01*
G75*
G02*
X139530000Y-128100000I150000J0D01*
G01*
X139830000Y-128100000D01*
G75*
G02*
X139980000Y-128250000I0J-150000D01*
G01*
X139980000Y-129650000D01*
G75*
G02*
X139830000Y-129800000I-150000J0D01*
G01*
X139530000Y-129800000D01*
G75*
G02*
X139380000Y-129650000I0J150000D01*
G01*
G37*
G36*
G01*
X138130000Y-129650000D02*
X138130000Y-128250000D01*
G75*
G02*
X138280000Y-128100000I150000J0D01*
G01*
X138580000Y-128100000D01*
G75*
G02*
X138730000Y-128250000I0J-150000D01*
G01*
X138730000Y-129650000D01*
G75*
G02*
X138580000Y-129800000I-150000J0D01*
G01*
X138280000Y-129800000D01*
G75*
G02*
X138130000Y-129650000I0J150000D01*
G01*
G37*
G36*
G01*
X136880000Y-129650000D02*
X136880000Y-128250000D01*
G75*
G02*
X137030000Y-128100000I150000J0D01*
G01*
X137330000Y-128100000D01*
G75*
G02*
X137480000Y-128250000I0J-150000D01*
G01*
X137480000Y-129650000D01*
G75*
G02*
X137330000Y-129800000I-150000J0D01*
G01*
X137030000Y-129800000D01*
G75*
G02*
X136880000Y-129650000I0J150000D01*
G01*
G37*
G36*
G01*
X141030000Y-117860000D02*
X141030000Y-115560000D01*
G75*
G02*
X141280000Y-115310000I250000J0D01*
G01*
X141780000Y-115310000D01*
G75*
G02*
X142030000Y-115560000I0J-250000D01*
G01*
X142030000Y-117860000D01*
G75*
G02*
X141780000Y-118110000I-250000J0D01*
G01*
X141280000Y-118110000D01*
G75*
G02*
X141030000Y-117860000I0J250000D01*
G01*
G37*
G36*
G01*
X134830000Y-117860000D02*
X134830000Y-115560000D01*
G75*
G02*
X135080000Y-115310000I250000J0D01*
G01*
X135580000Y-115310000D01*
G75*
G02*
X135830000Y-115560000I0J-250000D01*
G01*
X135830000Y-117860000D01*
G75*
G02*
X135580000Y-118110000I-250000J0D01*
G01*
X135080000Y-118110000D01*
G75*
G02*
X134830000Y-117860000I0J250000D01*
G01*
G37*
G36*
G01*
X139380000Y-120760000D02*
X139380000Y-119360000D01*
G75*
G02*
X139530000Y-119210000I150000J0D01*
G01*
X139830000Y-119210000D01*
G75*
G02*
X139980000Y-119360000I0J-150000D01*
G01*
X139980000Y-120760000D01*
G75*
G02*
X139830000Y-120910000I-150000J0D01*
G01*
X139530000Y-120910000D01*
G75*
G02*
X139380000Y-120760000I0J150000D01*
G01*
G37*
G36*
G01*
X138130000Y-120760000D02*
X138130000Y-119360000D01*
G75*
G02*
X138280000Y-119210000I150000J0D01*
G01*
X138580000Y-119210000D01*
G75*
G02*
X138730000Y-119360000I0J-150000D01*
G01*
X138730000Y-120760000D01*
G75*
G02*
X138580000Y-120910000I-150000J0D01*
G01*
X138280000Y-120910000D01*
G75*
G02*
X138130000Y-120760000I0J150000D01*
G01*
G37*
G36*
G01*
X136880000Y-120760000D02*
X136880000Y-119360000D01*
G75*
G02*
X137030000Y-119210000I150000J0D01*
G01*
X137330000Y-119210000D01*
G75*
G02*
X137480000Y-119360000I0J-150000D01*
G01*
X137480000Y-120760000D01*
G75*
G02*
X137330000Y-120910000I-150000J0D01*
G01*
X137030000Y-120910000D01*
G75*
G02*
X136880000Y-120760000I0J150000D01*
G01*
G37*
G36*
G01*
X31790000Y-126750000D02*
X31790000Y-124450000D01*
G75*
G02*
X32040000Y-124200000I250000J0D01*
G01*
X32540000Y-124200000D01*
G75*
G02*
X32790000Y-124450000I0J-250000D01*
G01*
X32790000Y-126750000D01*
G75*
G02*
X32540000Y-127000000I-250000J0D01*
G01*
X32040000Y-127000000D01*
G75*
G02*
X31790000Y-126750000I0J250000D01*
G01*
G37*
G36*
G01*
X23090000Y-126750000D02*
X23090000Y-124450000D01*
G75*
G02*
X23340000Y-124200000I250000J0D01*
G01*
X23840000Y-124200000D01*
G75*
G02*
X24090000Y-124450000I0J-250000D01*
G01*
X24090000Y-126750000D01*
G75*
G02*
X23840000Y-127000000I-250000J0D01*
G01*
X23340000Y-127000000D01*
G75*
G02*
X23090000Y-126750000I0J250000D01*
G01*
G37*
G36*
G01*
X30140000Y-129650000D02*
X30140000Y-128250000D01*
G75*
G02*
X30290000Y-128100000I150000J0D01*
G01*
X30590000Y-128100000D01*
G75*
G02*
X30740000Y-128250000I0J-150000D01*
G01*
X30740000Y-129650000D01*
G75*
G02*
X30590000Y-129800000I-150000J0D01*
G01*
X30290000Y-129800000D01*
G75*
G02*
X30140000Y-129650000I0J150000D01*
G01*
G37*
G36*
G01*
X28890000Y-129650000D02*
X28890000Y-128250000D01*
G75*
G02*
X29040000Y-128100000I150000J0D01*
G01*
X29340000Y-128100000D01*
G75*
G02*
X29490000Y-128250000I0J-150000D01*
G01*
X29490000Y-129650000D01*
G75*
G02*
X29340000Y-129800000I-150000J0D01*
G01*
X29040000Y-129800000D01*
G75*
G02*
X28890000Y-129650000I0J150000D01*
G01*
G37*
G36*
G01*
X27640000Y-129650000D02*
X27640000Y-128250000D01*
G75*
G02*
X27790000Y-128100000I150000J0D01*
G01*
X28090000Y-128100000D01*
G75*
G02*
X28240000Y-128250000I0J-150000D01*
G01*
X28240000Y-129650000D01*
G75*
G02*
X28090000Y-129800000I-150000J0D01*
G01*
X27790000Y-129800000D01*
G75*
G02*
X27640000Y-129650000I0J150000D01*
G01*
G37*
G36*
G01*
X26390000Y-129650000D02*
X26390000Y-128250000D01*
G75*
G02*
X26540000Y-128100000I150000J0D01*
G01*
X26840000Y-128100000D01*
G75*
G02*
X26990000Y-128250000I0J-150000D01*
G01*
X26990000Y-129650000D01*
G75*
G02*
X26840000Y-129800000I-150000J0D01*
G01*
X26540000Y-129800000D01*
G75*
G02*
X26390000Y-129650000I0J150000D01*
G01*
G37*
G36*
G01*
X25140000Y-129650000D02*
X25140000Y-128250000D01*
G75*
G02*
X25290000Y-128100000I150000J0D01*
G01*
X25590000Y-128100000D01*
G75*
G02*
X25740000Y-128250000I0J-150000D01*
G01*
X25740000Y-129650000D01*
G75*
G02*
X25590000Y-129800000I-150000J0D01*
G01*
X25290000Y-129800000D01*
G75*
G02*
X25140000Y-129650000I0J150000D01*
G01*
G37*
G36*
G01*
X31790000Y-117860000D02*
X31790000Y-115560000D01*
G75*
G02*
X32040000Y-115310000I250000J0D01*
G01*
X32540000Y-115310000D01*
G75*
G02*
X32790000Y-115560000I0J-250000D01*
G01*
X32790000Y-117860000D01*
G75*
G02*
X32540000Y-118110000I-250000J0D01*
G01*
X32040000Y-118110000D01*
G75*
G02*
X31790000Y-117860000I0J250000D01*
G01*
G37*
G36*
G01*
X23090000Y-117860000D02*
X23090000Y-115560000D01*
G75*
G02*
X23340000Y-115310000I250000J0D01*
G01*
X23840000Y-115310000D01*
G75*
G02*
X24090000Y-115560000I0J-250000D01*
G01*
X24090000Y-117860000D01*
G75*
G02*
X23840000Y-118110000I-250000J0D01*
G01*
X23340000Y-118110000D01*
G75*
G02*
X23090000Y-117860000I0J250000D01*
G01*
G37*
G36*
G01*
X30140000Y-120760000D02*
X30140000Y-119360000D01*
G75*
G02*
X30290000Y-119210000I150000J0D01*
G01*
X30590000Y-119210000D01*
G75*
G02*
X30740000Y-119360000I0J-150000D01*
G01*
X30740000Y-120760000D01*
G75*
G02*
X30590000Y-120910000I-150000J0D01*
G01*
X30290000Y-120910000D01*
G75*
G02*
X30140000Y-120760000I0J150000D01*
G01*
G37*
G36*
G01*
X28890000Y-120760000D02*
X28890000Y-119360000D01*
G75*
G02*
X29040000Y-119210000I150000J0D01*
G01*
X29340000Y-119210000D01*
G75*
G02*
X29490000Y-119360000I0J-150000D01*
G01*
X29490000Y-120760000D01*
G75*
G02*
X29340000Y-120910000I-150000J0D01*
G01*
X29040000Y-120910000D01*
G75*
G02*
X28890000Y-120760000I0J150000D01*
G01*
G37*
G36*
G01*
X27640000Y-120760000D02*
X27640000Y-119360000D01*
G75*
G02*
X27790000Y-119210000I150000J0D01*
G01*
X28090000Y-119210000D01*
G75*
G02*
X28240000Y-119360000I0J-150000D01*
G01*
X28240000Y-120760000D01*
G75*
G02*
X28090000Y-120910000I-150000J0D01*
G01*
X27790000Y-120910000D01*
G75*
G02*
X27640000Y-120760000I0J150000D01*
G01*
G37*
G36*
G01*
X26390000Y-120760000D02*
X26390000Y-119360000D01*
G75*
G02*
X26540000Y-119210000I150000J0D01*
G01*
X26840000Y-119210000D01*
G75*
G02*
X26990000Y-119360000I0J-150000D01*
G01*
X26990000Y-120760000D01*
G75*
G02*
X26840000Y-120910000I-150000J0D01*
G01*
X26540000Y-120910000D01*
G75*
G02*
X26390000Y-120760000I0J150000D01*
G01*
G37*
G36*
G01*
X25140000Y-120760000D02*
X25140000Y-119360000D01*
G75*
G02*
X25290000Y-119210000I150000J0D01*
G01*
X25590000Y-119210000D01*
G75*
G02*
X25740000Y-119360000I0J-150000D01*
G01*
X25740000Y-120760000D01*
G75*
G02*
X25590000Y-120910000I-150000J0D01*
G01*
X25290000Y-120910000D01*
G75*
G02*
X25140000Y-120760000I0J150000D01*
G01*
G37*
G36*
G01*
X83320000Y-126880000D02*
X83320000Y-124580000D01*
G75*
G02*
X83570000Y-124330000I250000J0D01*
G01*
X84070000Y-124330000D01*
G75*
G02*
X84320000Y-124580000I0J-250000D01*
G01*
X84320000Y-126880000D01*
G75*
G02*
X84070000Y-127130000I-250000J0D01*
G01*
X83570000Y-127130000D01*
G75*
G02*
X83320000Y-126880000I0J250000D01*
G01*
G37*
G36*
G01*
X75870000Y-126880000D02*
X75870000Y-124580000D01*
G75*
G02*
X76120000Y-124330000I250000J0D01*
G01*
X76620000Y-124330000D01*
G75*
G02*
X76870000Y-124580000I0J-250000D01*
G01*
X76870000Y-126880000D01*
G75*
G02*
X76620000Y-127130000I-250000J0D01*
G01*
X76120000Y-127130000D01*
G75*
G02*
X75870000Y-126880000I0J250000D01*
G01*
G37*
G36*
G01*
X81670000Y-129780000D02*
X81670000Y-128380000D01*
G75*
G02*
X81820000Y-128230000I150000J0D01*
G01*
X82120000Y-128230000D01*
G75*
G02*
X82270000Y-128380000I0J-150000D01*
G01*
X82270000Y-129780000D01*
G75*
G02*
X82120000Y-129930000I-150000J0D01*
G01*
X81820000Y-129930000D01*
G75*
G02*
X81670000Y-129780000I0J150000D01*
G01*
G37*
G36*
G01*
X80420000Y-129780000D02*
X80420000Y-128380000D01*
G75*
G02*
X80570000Y-128230000I150000J0D01*
G01*
X80870000Y-128230000D01*
G75*
G02*
X81020000Y-128380000I0J-150000D01*
G01*
X81020000Y-129780000D01*
G75*
G02*
X80870000Y-129930000I-150000J0D01*
G01*
X80570000Y-129930000D01*
G75*
G02*
X80420000Y-129780000I0J150000D01*
G01*
G37*
G36*
G01*
X79170000Y-129780000D02*
X79170000Y-128380000D01*
G75*
G02*
X79320000Y-128230000I150000J0D01*
G01*
X79620000Y-128230000D01*
G75*
G02*
X79770000Y-128380000I0J-150000D01*
G01*
X79770000Y-129780000D01*
G75*
G02*
X79620000Y-129930000I-150000J0D01*
G01*
X79320000Y-129930000D01*
G75*
G02*
X79170000Y-129780000I0J150000D01*
G01*
G37*
G36*
G01*
X77920000Y-129780000D02*
X77920000Y-128380000D01*
G75*
G02*
X78070000Y-128230000I150000J0D01*
G01*
X78370000Y-128230000D01*
G75*
G02*
X78520000Y-128380000I0J-150000D01*
G01*
X78520000Y-129780000D01*
G75*
G02*
X78370000Y-129930000I-150000J0D01*
G01*
X78070000Y-129930000D01*
G75*
G02*
X77920000Y-129780000I0J150000D01*
G01*
G37*
G36*
G01*
X83235000Y-117860000D02*
X83235000Y-115560000D01*
G75*
G02*
X83485000Y-115310000I250000J0D01*
G01*
X83985000Y-115310000D01*
G75*
G02*
X84235000Y-115560000I0J-250000D01*
G01*
X84235000Y-117860000D01*
G75*
G02*
X83985000Y-118110000I-250000J0D01*
G01*
X83485000Y-118110000D01*
G75*
G02*
X83235000Y-117860000I0J250000D01*
G01*
G37*
G36*
G01*
X75785000Y-117860000D02*
X75785000Y-115560000D01*
G75*
G02*
X76035000Y-115310000I250000J0D01*
G01*
X76535000Y-115310000D01*
G75*
G02*
X76785000Y-115560000I0J-250000D01*
G01*
X76785000Y-117860000D01*
G75*
G02*
X76535000Y-118110000I-250000J0D01*
G01*
X76035000Y-118110000D01*
G75*
G02*
X75785000Y-117860000I0J250000D01*
G01*
G37*
G36*
G01*
X81585000Y-120760000D02*
X81585000Y-119360000D01*
G75*
G02*
X81735000Y-119210000I150000J0D01*
G01*
X82035000Y-119210000D01*
G75*
G02*
X82185000Y-119360000I0J-150000D01*
G01*
X82185000Y-120760000D01*
G75*
G02*
X82035000Y-120910000I-150000J0D01*
G01*
X81735000Y-120910000D01*
G75*
G02*
X81585000Y-120760000I0J150000D01*
G01*
G37*
G36*
G01*
X80335000Y-120760000D02*
X80335000Y-119360000D01*
G75*
G02*
X80485000Y-119210000I150000J0D01*
G01*
X80785000Y-119210000D01*
G75*
G02*
X80935000Y-119360000I0J-150000D01*
G01*
X80935000Y-120760000D01*
G75*
G02*
X80785000Y-120910000I-150000J0D01*
G01*
X80485000Y-120910000D01*
G75*
G02*
X80335000Y-120760000I0J150000D01*
G01*
G37*
G36*
G01*
X79085000Y-120760000D02*
X79085000Y-119360000D01*
G75*
G02*
X79235000Y-119210000I150000J0D01*
G01*
X79535000Y-119210000D01*
G75*
G02*
X79685000Y-119360000I0J-150000D01*
G01*
X79685000Y-120760000D01*
G75*
G02*
X79535000Y-120910000I-150000J0D01*
G01*
X79235000Y-120910000D01*
G75*
G02*
X79085000Y-120760000I0J150000D01*
G01*
G37*
G36*
G01*
X77835000Y-120760000D02*
X77835000Y-119360000D01*
G75*
G02*
X77985000Y-119210000I150000J0D01*
G01*
X78285000Y-119210000D01*
G75*
G02*
X78435000Y-119360000I0J-150000D01*
G01*
X78435000Y-120760000D01*
G75*
G02*
X78285000Y-120910000I-150000J0D01*
G01*
X77985000Y-120910000D01*
G75*
G02*
X77835000Y-120760000I0J150000D01*
G01*
G37*
G36*
G01*
X30540000Y-93730000D02*
X30540000Y-91430000D01*
G75*
G02*
X30790000Y-91180000I250000J0D01*
G01*
X31290000Y-91180000D01*
G75*
G02*
X31540000Y-91430000I0J-250000D01*
G01*
X31540000Y-93730000D01*
G75*
G02*
X31290000Y-93980000I-250000J0D01*
G01*
X30790000Y-93980000D01*
G75*
G02*
X30540000Y-93730000I0J250000D01*
G01*
G37*
G36*
G01*
X24340000Y-93730000D02*
X24340000Y-91430000D01*
G75*
G02*
X24590000Y-91180000I250000J0D01*
G01*
X25090000Y-91180000D01*
G75*
G02*
X25340000Y-91430000I0J-250000D01*
G01*
X25340000Y-93730000D01*
G75*
G02*
X25090000Y-93980000I-250000J0D01*
G01*
X24590000Y-93980000D01*
G75*
G02*
X24340000Y-93730000I0J250000D01*
G01*
G37*
G36*
G01*
X28890000Y-96630000D02*
X28890000Y-95230000D01*
G75*
G02*
X29040000Y-95080000I150000J0D01*
G01*
X29340000Y-95080000D01*
G75*
G02*
X29490000Y-95230000I0J-150000D01*
G01*
X29490000Y-96630000D01*
G75*
G02*
X29340000Y-96780000I-150000J0D01*
G01*
X29040000Y-96780000D01*
G75*
G02*
X28890000Y-96630000I0J150000D01*
G01*
G37*
G36*
G01*
X27640000Y-96630000D02*
X27640000Y-95230000D01*
G75*
G02*
X27790000Y-95080000I150000J0D01*
G01*
X28090000Y-95080000D01*
G75*
G02*
X28240000Y-95230000I0J-150000D01*
G01*
X28240000Y-96630000D01*
G75*
G02*
X28090000Y-96780000I-150000J0D01*
G01*
X27790000Y-96780000D01*
G75*
G02*
X27640000Y-96630000I0J150000D01*
G01*
G37*
G36*
G01*
X26390000Y-96630000D02*
X26390000Y-95230000D01*
G75*
G02*
X26540000Y-95080000I150000J0D01*
G01*
X26840000Y-95080000D01*
G75*
G02*
X26990000Y-95230000I0J-150000D01*
G01*
X26990000Y-96630000D01*
G75*
G02*
X26840000Y-96780000I-150000J0D01*
G01*
X26540000Y-96780000D01*
G75*
G02*
X26390000Y-96630000I0J150000D01*
G01*
G37*
M02*
