M48
; DRILL file {KiCad (5.1.10)-1} date 11/27/21 12:56:45
; FORMAT={-:-/ absolute / metric / decimal}
; #@! TF.CreationDate,2021-11-27T12:56:45-07:00
; #@! TF.GenerationSoftware,Kicad,Pcbnew,(5.1.10)-1
FMAT,2
METRIC
T1C1.000
%
G90
G05
T1
X25.4Y-74.93
X25.4Y-77.47
X25.4Y-80.01
X27.94Y-74.93
X27.94Y-77.47
X27.94Y-80.01
X30.48Y-74.93
X30.48Y-77.47
X30.48Y-80.01
X33.02Y-74.93
X33.02Y-77.47
X33.02Y-80.01
X35.56Y-55.88
X35.56Y-58.42
X35.56Y-60.96
X35.56Y-74.93
X35.56Y-77.47
X35.56Y-80.01
X38.1Y-55.88
X38.1Y-58.42
X38.1Y-60.96
X38.1Y-74.93
X38.1Y-77.47
X38.1Y-80.01
X40.64Y-55.88
X40.64Y-58.42
X40.64Y-60.96
X40.64Y-74.93
X40.64Y-77.47
X40.64Y-80.01
X43.18Y-55.88
X43.18Y-58.42
X43.18Y-60.96
X43.18Y-74.93
X43.18Y-77.47
X43.18Y-80.01
X45.72Y-55.88
X45.72Y-58.42
X45.72Y-60.96
X45.72Y-74.93
X45.72Y-77.47
X45.72Y-80.01
X48.26Y-55.88
X48.26Y-58.42
X48.26Y-60.96
X48.26Y-74.93
X48.26Y-77.47
X48.26Y-80.01
X50.8Y-55.88
X50.8Y-58.42
X50.8Y-60.96
X50.8Y-74.93
X50.8Y-77.47
X50.8Y-80.01
X53.34Y-55.88
X53.34Y-58.42
X53.34Y-60.96
X53.34Y-74.93
X53.34Y-77.47
X53.34Y-80.01
X55.88Y-55.88
X55.88Y-58.42
X55.88Y-60.96
X55.88Y-74.93
X55.88Y-77.47
X55.88Y-80.01
X58.42Y-55.88
X58.42Y-58.42
X58.42Y-60.96
X58.42Y-74.93
X58.42Y-77.47
X58.42Y-80.01
X60.96Y-55.88
X60.96Y-58.42
X60.96Y-60.96
X60.96Y-74.93
X60.96Y-77.47
X60.96Y-80.01
X63.5Y-55.88
X63.5Y-58.42
X63.5Y-60.96
X63.5Y-74.93
X63.5Y-77.47
X63.5Y-80.01
X66.04Y-55.88
X66.04Y-58.42
X66.04Y-60.96
X68.58Y-55.88
X68.58Y-58.42
X68.58Y-60.96
X71.12Y-55.88
X71.12Y-58.42
X71.12Y-60.96
X73.66Y-55.88
X73.66Y-58.42
X73.66Y-60.96
T0
M30
