%FSLAX45Y45*%
G04 Gerber Fmt 4.5, Leading zero omitted, Abs format (unit mm)*
G04 Created by KiCad (PCBNEW (5.1.10)-1) date 2021-11-27 12:57:09*
%MOMM*%
%LPD*%
G01*
G04 APERTURE LIST*
%TA.AperFunction,Profile*%
%ADD10C,0.100000*%
%TD*%
%ADD11C,0.200000*%
%ADD12C,0.300000*%
G04 APERTURE END LIST*
D10*
X14732000Y-4699000D02*
X14732000Y-13589000D01*
X1778000Y-4699000D02*
X14732000Y-4699000D01*
X1778000Y-13589000D02*
X1778000Y-4699000D01*
X14732000Y-13589000D02*
X1778000Y-13589000D01*
D11*
X2490000Y-7443000D02*
X2590000Y-7543000D01*
X2590000Y-7443000D02*
X2490000Y-7543000D01*
X2490000Y-7697000D02*
X2590000Y-7797000D01*
X2590000Y-7697000D02*
X2490000Y-7797000D01*
X2490000Y-7951000D02*
X2590000Y-8051000D01*
X2590000Y-7951000D02*
X2490000Y-8051000D01*
X2744000Y-7443000D02*
X2844000Y-7543000D01*
X2844000Y-7443000D02*
X2744000Y-7543000D01*
X2744000Y-7697000D02*
X2844000Y-7797000D01*
X2844000Y-7697000D02*
X2744000Y-7797000D01*
X2744000Y-7951000D02*
X2844000Y-8051000D01*
X2844000Y-7951000D02*
X2744000Y-8051000D01*
X2998000Y-7443000D02*
X3098000Y-7543000D01*
X3098000Y-7443000D02*
X2998000Y-7543000D01*
X2998000Y-7697000D02*
X3098000Y-7797000D01*
X3098000Y-7697000D02*
X2998000Y-7797000D01*
X2998000Y-7951000D02*
X3098000Y-8051000D01*
X3098000Y-7951000D02*
X2998000Y-8051000D01*
X3252000Y-7443000D02*
X3352000Y-7543000D01*
X3352000Y-7443000D02*
X3252000Y-7543000D01*
X3252000Y-7697000D02*
X3352000Y-7797000D01*
X3352000Y-7697000D02*
X3252000Y-7797000D01*
X3252000Y-7951000D02*
X3352000Y-8051000D01*
X3352000Y-7951000D02*
X3252000Y-8051000D01*
X3506000Y-5538000D02*
X3606000Y-5638000D01*
X3606000Y-5538000D02*
X3506000Y-5638000D01*
X3506000Y-5792000D02*
X3606000Y-5892000D01*
X3606000Y-5792000D02*
X3506000Y-5892000D01*
X3506000Y-6046000D02*
X3606000Y-6146000D01*
X3606000Y-6046000D02*
X3506000Y-6146000D01*
X3506000Y-7443000D02*
X3606000Y-7543000D01*
X3606000Y-7443000D02*
X3506000Y-7543000D01*
X3506000Y-7697000D02*
X3606000Y-7797000D01*
X3606000Y-7697000D02*
X3506000Y-7797000D01*
X3506000Y-7951000D02*
X3606000Y-8051000D01*
X3606000Y-7951000D02*
X3506000Y-8051000D01*
X3760000Y-5538000D02*
X3860000Y-5638000D01*
X3860000Y-5538000D02*
X3760000Y-5638000D01*
X3760000Y-5792000D02*
X3860000Y-5892000D01*
X3860000Y-5792000D02*
X3760000Y-5892000D01*
X3760000Y-6046000D02*
X3860000Y-6146000D01*
X3860000Y-6046000D02*
X3760000Y-6146000D01*
X3760000Y-7443000D02*
X3860000Y-7543000D01*
X3860000Y-7443000D02*
X3760000Y-7543000D01*
X3760000Y-7697000D02*
X3860000Y-7797000D01*
X3860000Y-7697000D02*
X3760000Y-7797000D01*
X3760000Y-7951000D02*
X3860000Y-8051000D01*
X3860000Y-7951000D02*
X3760000Y-8051000D01*
X4014000Y-5538000D02*
X4114000Y-5638000D01*
X4114000Y-5538000D02*
X4014000Y-5638000D01*
X4014000Y-5792000D02*
X4114000Y-5892000D01*
X4114000Y-5792000D02*
X4014000Y-5892000D01*
X4014000Y-6046000D02*
X4114000Y-6146000D01*
X4114000Y-6046000D02*
X4014000Y-6146000D01*
X4014000Y-7443000D02*
X4114000Y-7543000D01*
X4114000Y-7443000D02*
X4014000Y-7543000D01*
X4014000Y-7697000D02*
X4114000Y-7797000D01*
X4114000Y-7697000D02*
X4014000Y-7797000D01*
X4014000Y-7951000D02*
X4114000Y-8051000D01*
X4114000Y-7951000D02*
X4014000Y-8051000D01*
X4268000Y-5538000D02*
X4368000Y-5638000D01*
X4368000Y-5538000D02*
X4268000Y-5638000D01*
X4268000Y-5792000D02*
X4368000Y-5892000D01*
X4368000Y-5792000D02*
X4268000Y-5892000D01*
X4268000Y-6046000D02*
X4368000Y-6146000D01*
X4368000Y-6046000D02*
X4268000Y-6146000D01*
X4268000Y-7443000D02*
X4368000Y-7543000D01*
X4368000Y-7443000D02*
X4268000Y-7543000D01*
X4268000Y-7697000D02*
X4368000Y-7797000D01*
X4368000Y-7697000D02*
X4268000Y-7797000D01*
X4268000Y-7951000D02*
X4368000Y-8051000D01*
X4368000Y-7951000D02*
X4268000Y-8051000D01*
X4522000Y-5538000D02*
X4622000Y-5638000D01*
X4622000Y-5538000D02*
X4522000Y-5638000D01*
X4522000Y-5792000D02*
X4622000Y-5892000D01*
X4622000Y-5792000D02*
X4522000Y-5892000D01*
X4522000Y-6046000D02*
X4622000Y-6146000D01*
X4622000Y-6046000D02*
X4522000Y-6146000D01*
X4522000Y-7443000D02*
X4622000Y-7543000D01*
X4622000Y-7443000D02*
X4522000Y-7543000D01*
X4522000Y-7697000D02*
X4622000Y-7797000D01*
X4622000Y-7697000D02*
X4522000Y-7797000D01*
X4522000Y-7951000D02*
X4622000Y-8051000D01*
X4622000Y-7951000D02*
X4522000Y-8051000D01*
X4776000Y-5538000D02*
X4876000Y-5638000D01*
X4876000Y-5538000D02*
X4776000Y-5638000D01*
X4776000Y-5792000D02*
X4876000Y-5892000D01*
X4876000Y-5792000D02*
X4776000Y-5892000D01*
X4776000Y-6046000D02*
X4876000Y-6146000D01*
X4876000Y-6046000D02*
X4776000Y-6146000D01*
X4776000Y-7443000D02*
X4876000Y-7543000D01*
X4876000Y-7443000D02*
X4776000Y-7543000D01*
X4776000Y-7697000D02*
X4876000Y-7797000D01*
X4876000Y-7697000D02*
X4776000Y-7797000D01*
X4776000Y-7951000D02*
X4876000Y-8051000D01*
X4876000Y-7951000D02*
X4776000Y-8051000D01*
X5030000Y-5538000D02*
X5130000Y-5638000D01*
X5130000Y-5538000D02*
X5030000Y-5638000D01*
X5030000Y-5792000D02*
X5130000Y-5892000D01*
X5130000Y-5792000D02*
X5030000Y-5892000D01*
X5030000Y-6046000D02*
X5130000Y-6146000D01*
X5130000Y-6046000D02*
X5030000Y-6146000D01*
X5030000Y-7443000D02*
X5130000Y-7543000D01*
X5130000Y-7443000D02*
X5030000Y-7543000D01*
X5030000Y-7697000D02*
X5130000Y-7797000D01*
X5130000Y-7697000D02*
X5030000Y-7797000D01*
X5030000Y-7951000D02*
X5130000Y-8051000D01*
X5130000Y-7951000D02*
X5030000Y-8051000D01*
X5284000Y-5538000D02*
X5384000Y-5638000D01*
X5384000Y-5538000D02*
X5284000Y-5638000D01*
X5284000Y-5792000D02*
X5384000Y-5892000D01*
X5384000Y-5792000D02*
X5284000Y-5892000D01*
X5284000Y-6046000D02*
X5384000Y-6146000D01*
X5384000Y-6046000D02*
X5284000Y-6146000D01*
X5284000Y-7443000D02*
X5384000Y-7543000D01*
X5384000Y-7443000D02*
X5284000Y-7543000D01*
X5284000Y-7697000D02*
X5384000Y-7797000D01*
X5384000Y-7697000D02*
X5284000Y-7797000D01*
X5284000Y-7951000D02*
X5384000Y-8051000D01*
X5384000Y-7951000D02*
X5284000Y-8051000D01*
X5538000Y-5538000D02*
X5638000Y-5638000D01*
X5638000Y-5538000D02*
X5538000Y-5638000D01*
X5538000Y-5792000D02*
X5638000Y-5892000D01*
X5638000Y-5792000D02*
X5538000Y-5892000D01*
X5538000Y-6046000D02*
X5638000Y-6146000D01*
X5638000Y-6046000D02*
X5538000Y-6146000D01*
X5538000Y-7443000D02*
X5638000Y-7543000D01*
X5638000Y-7443000D02*
X5538000Y-7543000D01*
X5538000Y-7697000D02*
X5638000Y-7797000D01*
X5638000Y-7697000D02*
X5538000Y-7797000D01*
X5538000Y-7951000D02*
X5638000Y-8051000D01*
X5638000Y-7951000D02*
X5538000Y-8051000D01*
X5792000Y-5538000D02*
X5892000Y-5638000D01*
X5892000Y-5538000D02*
X5792000Y-5638000D01*
X5792000Y-5792000D02*
X5892000Y-5892000D01*
X5892000Y-5792000D02*
X5792000Y-5892000D01*
X5792000Y-6046000D02*
X5892000Y-6146000D01*
X5892000Y-6046000D02*
X5792000Y-6146000D01*
X5792000Y-7443000D02*
X5892000Y-7543000D01*
X5892000Y-7443000D02*
X5792000Y-7543000D01*
X5792000Y-7697000D02*
X5892000Y-7797000D01*
X5892000Y-7697000D02*
X5792000Y-7797000D01*
X5792000Y-7951000D02*
X5892000Y-8051000D01*
X5892000Y-7951000D02*
X5792000Y-8051000D01*
X6046000Y-5538000D02*
X6146000Y-5638000D01*
X6146000Y-5538000D02*
X6046000Y-5638000D01*
X6046000Y-5792000D02*
X6146000Y-5892000D01*
X6146000Y-5792000D02*
X6046000Y-5892000D01*
X6046000Y-6046000D02*
X6146000Y-6146000D01*
X6146000Y-6046000D02*
X6046000Y-6146000D01*
X6046000Y-7443000D02*
X6146000Y-7543000D01*
X6146000Y-7443000D02*
X6046000Y-7543000D01*
X6046000Y-7697000D02*
X6146000Y-7797000D01*
X6146000Y-7697000D02*
X6046000Y-7797000D01*
X6046000Y-7951000D02*
X6146000Y-8051000D01*
X6146000Y-7951000D02*
X6046000Y-8051000D01*
X6300000Y-5538000D02*
X6400000Y-5638000D01*
X6400000Y-5538000D02*
X6300000Y-5638000D01*
X6300000Y-5792000D02*
X6400000Y-5892000D01*
X6400000Y-5792000D02*
X6300000Y-5892000D01*
X6300000Y-6046000D02*
X6400000Y-6146000D01*
X6400000Y-6046000D02*
X6300000Y-6146000D01*
X6300000Y-7443000D02*
X6400000Y-7543000D01*
X6400000Y-7443000D02*
X6300000Y-7543000D01*
X6300000Y-7697000D02*
X6400000Y-7797000D01*
X6400000Y-7697000D02*
X6300000Y-7797000D01*
X6300000Y-7951000D02*
X6400000Y-8051000D01*
X6400000Y-7951000D02*
X6300000Y-8051000D01*
X6554000Y-5538000D02*
X6654000Y-5638000D01*
X6654000Y-5538000D02*
X6554000Y-5638000D01*
X6554000Y-5792000D02*
X6654000Y-5892000D01*
X6654000Y-5792000D02*
X6554000Y-5892000D01*
X6554000Y-6046000D02*
X6654000Y-6146000D01*
X6654000Y-6046000D02*
X6554000Y-6146000D01*
X6808000Y-5538000D02*
X6908000Y-5638000D01*
X6908000Y-5538000D02*
X6808000Y-5638000D01*
X6808000Y-5792000D02*
X6908000Y-5892000D01*
X6908000Y-5792000D02*
X6808000Y-5892000D01*
X6808000Y-6046000D02*
X6908000Y-6146000D01*
X6908000Y-6046000D02*
X6808000Y-6146000D01*
X7062000Y-5538000D02*
X7162000Y-5638000D01*
X7162000Y-5538000D02*
X7062000Y-5638000D01*
X7062000Y-5792000D02*
X7162000Y-5892000D01*
X7162000Y-5792000D02*
X7062000Y-5892000D01*
X7062000Y-6046000D02*
X7162000Y-6146000D01*
X7162000Y-6046000D02*
X7062000Y-6146000D01*
X7316000Y-5538000D02*
X7416000Y-5638000D01*
X7416000Y-5538000D02*
X7316000Y-5638000D01*
X7316000Y-5792000D02*
X7416000Y-5892000D01*
X7416000Y-5792000D02*
X7316000Y-5892000D01*
X7316000Y-6046000D02*
X7416000Y-6146000D01*
X7416000Y-6046000D02*
X7316000Y-6146000D01*
D12*
X2059428Y-14059714D02*
X2059428Y-13759714D01*
X2130857Y-13759714D01*
X2173714Y-13774000D01*
X2202286Y-13802571D01*
X2216571Y-13831143D01*
X2230857Y-13888286D01*
X2230857Y-13931143D01*
X2216571Y-13988286D01*
X2202286Y-14016857D01*
X2173714Y-14045429D01*
X2130857Y-14059714D01*
X2059428Y-14059714D01*
X2359428Y-14059714D02*
X2359428Y-13859714D01*
X2359428Y-13916857D02*
X2373714Y-13888286D01*
X2388000Y-13874000D01*
X2416571Y-13859714D01*
X2445143Y-13859714D01*
X2545143Y-14059714D02*
X2545143Y-13859714D01*
X2545143Y-13759714D02*
X2530857Y-13774000D01*
X2545143Y-13788286D01*
X2559428Y-13774000D01*
X2545143Y-13759714D01*
X2545143Y-13788286D01*
X2730857Y-14059714D02*
X2702286Y-14045429D01*
X2688000Y-14016857D01*
X2688000Y-13759714D01*
X2888000Y-14059714D02*
X2859428Y-14045429D01*
X2845143Y-14016857D01*
X2845143Y-13759714D01*
X3230857Y-14059714D02*
X3230857Y-13759714D01*
X3330857Y-13974000D01*
X3430857Y-13759714D01*
X3430857Y-14059714D01*
X3702286Y-14059714D02*
X3702286Y-13902571D01*
X3688000Y-13874000D01*
X3659428Y-13859714D01*
X3602286Y-13859714D01*
X3573714Y-13874000D01*
X3702286Y-14045429D02*
X3673714Y-14059714D01*
X3602286Y-14059714D01*
X3573714Y-14045429D01*
X3559428Y-14016857D01*
X3559428Y-13988286D01*
X3573714Y-13959714D01*
X3602286Y-13945429D01*
X3673714Y-13945429D01*
X3702286Y-13931143D01*
X3845143Y-13859714D02*
X3845143Y-14159714D01*
X3845143Y-13874000D02*
X3873714Y-13859714D01*
X3930857Y-13859714D01*
X3959428Y-13874000D01*
X3973714Y-13888286D01*
X3988000Y-13916857D01*
X3988000Y-14002571D01*
X3973714Y-14031143D01*
X3959428Y-14045429D01*
X3930857Y-14059714D01*
X3873714Y-14059714D01*
X3845143Y-14045429D01*
X4116571Y-14031143D02*
X4130857Y-14045429D01*
X4116571Y-14059714D01*
X4102286Y-14045429D01*
X4116571Y-14031143D01*
X4116571Y-14059714D01*
X4116571Y-13874000D02*
X4130857Y-13888286D01*
X4116571Y-13902571D01*
X4102286Y-13888286D01*
X4116571Y-13874000D01*
X4116571Y-13902571D01*
X1673000Y-14504000D02*
X1773000Y-14604000D01*
X1773000Y-14504000D02*
X1673000Y-14604000D01*
X2216571Y-14689714D02*
X2045143Y-14689714D01*
X2130857Y-14689714D02*
X2130857Y-14389714D01*
X2102286Y-14432571D01*
X2073714Y-14461143D01*
X2045143Y-14475429D01*
X2345143Y-14661143D02*
X2359428Y-14675429D01*
X2345143Y-14689714D01*
X2330857Y-14675429D01*
X2345143Y-14661143D01*
X2345143Y-14689714D01*
X2545143Y-14389714D02*
X2573714Y-14389714D01*
X2602286Y-14404000D01*
X2616571Y-14418286D01*
X2630857Y-14446857D01*
X2645143Y-14504000D01*
X2645143Y-14575429D01*
X2630857Y-14632571D01*
X2616571Y-14661143D01*
X2602286Y-14675429D01*
X2573714Y-14689714D01*
X2545143Y-14689714D01*
X2516571Y-14675429D01*
X2502286Y-14661143D01*
X2488000Y-14632571D01*
X2473714Y-14575429D01*
X2473714Y-14504000D01*
X2488000Y-14446857D01*
X2502286Y-14418286D01*
X2516571Y-14404000D01*
X2545143Y-14389714D01*
X2830857Y-14389714D02*
X2859428Y-14389714D01*
X2888000Y-14404000D01*
X2902286Y-14418286D01*
X2916571Y-14446857D01*
X2930857Y-14504000D01*
X2930857Y-14575429D01*
X2916571Y-14632571D01*
X2902286Y-14661143D01*
X2888000Y-14675429D01*
X2859428Y-14689714D01*
X2830857Y-14689714D01*
X2802286Y-14675429D01*
X2788000Y-14661143D01*
X2773714Y-14632571D01*
X2759428Y-14575429D01*
X2759428Y-14504000D01*
X2773714Y-14446857D01*
X2788000Y-14418286D01*
X2802286Y-14404000D01*
X2830857Y-14389714D01*
X3116571Y-14389714D02*
X3145143Y-14389714D01*
X3173714Y-14404000D01*
X3188000Y-14418286D01*
X3202286Y-14446857D01*
X3216571Y-14504000D01*
X3216571Y-14575429D01*
X3202286Y-14632571D01*
X3188000Y-14661143D01*
X3173714Y-14675429D01*
X3145143Y-14689714D01*
X3116571Y-14689714D01*
X3088000Y-14675429D01*
X3073714Y-14661143D01*
X3059428Y-14632571D01*
X3045143Y-14575429D01*
X3045143Y-14504000D01*
X3059428Y-14446857D01*
X3073714Y-14418286D01*
X3088000Y-14404000D01*
X3116571Y-14389714D01*
X3345143Y-14689714D02*
X3345143Y-14489714D01*
X3345143Y-14518286D02*
X3359428Y-14504000D01*
X3388000Y-14489714D01*
X3430857Y-14489714D01*
X3459428Y-14504000D01*
X3473714Y-14532571D01*
X3473714Y-14689714D01*
X3473714Y-14532571D02*
X3488000Y-14504000D01*
X3516571Y-14489714D01*
X3559428Y-14489714D01*
X3588000Y-14504000D01*
X3602286Y-14532571D01*
X3602286Y-14689714D01*
X3745143Y-14689714D02*
X3745143Y-14489714D01*
X3745143Y-14518286D02*
X3759428Y-14504000D01*
X3788000Y-14489714D01*
X3830857Y-14489714D01*
X3859428Y-14504000D01*
X3873714Y-14532571D01*
X3873714Y-14689714D01*
X3873714Y-14532571D02*
X3888000Y-14504000D01*
X3916571Y-14489714D01*
X3959428Y-14489714D01*
X3988000Y-14504000D01*
X4002286Y-14532571D01*
X4002286Y-14689714D01*
X4588000Y-14375429D02*
X4330857Y-14761143D01*
X4973714Y-14389714D02*
X5002286Y-14389714D01*
X5030857Y-14404000D01*
X5045143Y-14418286D01*
X5059428Y-14446857D01*
X5073714Y-14504000D01*
X5073714Y-14575429D01*
X5059428Y-14632571D01*
X5045143Y-14661143D01*
X5030857Y-14675429D01*
X5002286Y-14689714D01*
X4973714Y-14689714D01*
X4945143Y-14675429D01*
X4930857Y-14661143D01*
X4916571Y-14632571D01*
X4902286Y-14575429D01*
X4902286Y-14504000D01*
X4916571Y-14446857D01*
X4930857Y-14418286D01*
X4945143Y-14404000D01*
X4973714Y-14389714D01*
X5202286Y-14661143D02*
X5216571Y-14675429D01*
X5202286Y-14689714D01*
X5188000Y-14675429D01*
X5202286Y-14661143D01*
X5202286Y-14689714D01*
X5402286Y-14389714D02*
X5430857Y-14389714D01*
X5459428Y-14404000D01*
X5473714Y-14418286D01*
X5488000Y-14446857D01*
X5502286Y-14504000D01*
X5502286Y-14575429D01*
X5488000Y-14632571D01*
X5473714Y-14661143D01*
X5459428Y-14675429D01*
X5430857Y-14689714D01*
X5402286Y-14689714D01*
X5373714Y-14675429D01*
X5359428Y-14661143D01*
X5345143Y-14632571D01*
X5330857Y-14575429D01*
X5330857Y-14504000D01*
X5345143Y-14446857D01*
X5359428Y-14418286D01*
X5373714Y-14404000D01*
X5402286Y-14389714D01*
X5602286Y-14389714D02*
X5788000Y-14389714D01*
X5688000Y-14504000D01*
X5730857Y-14504000D01*
X5759428Y-14518286D01*
X5773714Y-14532571D01*
X5788000Y-14561143D01*
X5788000Y-14632571D01*
X5773714Y-14661143D01*
X5759428Y-14675429D01*
X5730857Y-14689714D01*
X5645143Y-14689714D01*
X5616571Y-14675429D01*
X5602286Y-14661143D01*
X5930857Y-14689714D02*
X5988000Y-14689714D01*
X6016571Y-14675429D01*
X6030857Y-14661143D01*
X6059428Y-14618286D01*
X6073714Y-14561143D01*
X6073714Y-14446857D01*
X6059428Y-14418286D01*
X6045143Y-14404000D01*
X6016571Y-14389714D01*
X5959428Y-14389714D01*
X5930857Y-14404000D01*
X5916571Y-14418286D01*
X5902286Y-14446857D01*
X5902286Y-14518286D01*
X5916571Y-14546857D01*
X5930857Y-14561143D01*
X5959428Y-14575429D01*
X6016571Y-14575429D01*
X6045143Y-14561143D01*
X6059428Y-14546857D01*
X6073714Y-14518286D01*
X6330857Y-14489714D02*
X6330857Y-14689714D01*
X6259428Y-14375429D02*
X6188000Y-14589714D01*
X6373714Y-14589714D01*
X6473714Y-14389714D02*
X6473714Y-14446857D01*
X6588000Y-14389714D02*
X6588000Y-14446857D01*
X7030857Y-14804000D02*
X7016571Y-14789714D01*
X6988000Y-14746857D01*
X6973714Y-14718286D01*
X6959428Y-14675429D01*
X6945143Y-14604000D01*
X6945143Y-14546857D01*
X6959428Y-14475429D01*
X6973714Y-14432571D01*
X6988000Y-14404000D01*
X7016571Y-14361143D01*
X7030857Y-14346857D01*
X7159428Y-14689714D02*
X7216571Y-14689714D01*
X7245143Y-14675429D01*
X7259428Y-14661143D01*
X7288000Y-14618286D01*
X7302286Y-14561143D01*
X7302286Y-14446857D01*
X7288000Y-14418286D01*
X7273714Y-14404000D01*
X7245143Y-14389714D01*
X7188000Y-14389714D01*
X7159428Y-14404000D01*
X7145143Y-14418286D01*
X7130857Y-14446857D01*
X7130857Y-14518286D01*
X7145143Y-14546857D01*
X7159428Y-14561143D01*
X7188000Y-14575429D01*
X7245143Y-14575429D01*
X7273714Y-14561143D01*
X7288000Y-14546857D01*
X7302286Y-14518286D01*
X7559428Y-14389714D02*
X7502286Y-14389714D01*
X7473714Y-14404000D01*
X7459428Y-14418286D01*
X7430857Y-14461143D01*
X7416571Y-14518286D01*
X7416571Y-14632571D01*
X7430857Y-14661143D01*
X7445143Y-14675429D01*
X7473714Y-14689714D01*
X7530857Y-14689714D01*
X7559428Y-14675429D01*
X7573714Y-14661143D01*
X7588000Y-14632571D01*
X7588000Y-14561143D01*
X7573714Y-14532571D01*
X7559428Y-14518286D01*
X7530857Y-14504000D01*
X7473714Y-14504000D01*
X7445143Y-14518286D01*
X7430857Y-14532571D01*
X7416571Y-14561143D01*
X7945143Y-14689714D02*
X7945143Y-14389714D01*
X8073714Y-14689714D02*
X8073714Y-14532571D01*
X8059428Y-14504000D01*
X8030857Y-14489714D01*
X7988000Y-14489714D01*
X7959428Y-14504000D01*
X7945143Y-14518286D01*
X8259428Y-14689714D02*
X8230857Y-14675429D01*
X8216571Y-14661143D01*
X8202286Y-14632571D01*
X8202286Y-14546857D01*
X8216571Y-14518286D01*
X8230857Y-14504000D01*
X8259428Y-14489714D01*
X8302286Y-14489714D01*
X8330857Y-14504000D01*
X8345143Y-14518286D01*
X8359428Y-14546857D01*
X8359428Y-14632571D01*
X8345143Y-14661143D01*
X8330857Y-14675429D01*
X8302286Y-14689714D01*
X8259428Y-14689714D01*
X8530857Y-14689714D02*
X8502286Y-14675429D01*
X8488000Y-14646857D01*
X8488000Y-14389714D01*
X8759428Y-14675429D02*
X8730857Y-14689714D01*
X8673714Y-14689714D01*
X8645143Y-14675429D01*
X8630857Y-14646857D01*
X8630857Y-14532571D01*
X8645143Y-14504000D01*
X8673714Y-14489714D01*
X8730857Y-14489714D01*
X8759428Y-14504000D01*
X8773714Y-14532571D01*
X8773714Y-14561143D01*
X8630857Y-14589714D01*
X8888000Y-14675429D02*
X8916571Y-14689714D01*
X8973714Y-14689714D01*
X9002286Y-14675429D01*
X9016571Y-14646857D01*
X9016571Y-14632571D01*
X9002286Y-14604000D01*
X8973714Y-14589714D01*
X8930857Y-14589714D01*
X8902286Y-14575429D01*
X8888000Y-14546857D01*
X8888000Y-14532571D01*
X8902286Y-14504000D01*
X8930857Y-14489714D01*
X8973714Y-14489714D01*
X9002286Y-14504000D01*
X9116571Y-14804000D02*
X9130857Y-14789714D01*
X9159428Y-14746857D01*
X9173714Y-14718286D01*
X9188000Y-14675429D01*
X9202286Y-14604000D01*
X9202286Y-14546857D01*
X9188000Y-14475429D01*
X9173714Y-14432571D01*
X9159428Y-14404000D01*
X9130857Y-14361143D01*
X9116571Y-14346857D01*
M02*
